<?xml version="1.0" encoding="UTF-8" standalone="no"?>
<!DOCTYPE svg PUBLIC "-//W3C//DTD SVG 1.1//EN"
 "http://www.w3.org/Graphics/SVG/1.1/DTD/svg11.dtd">
<!-- Generated by graphviz version 2.38.0 (20140413.2041)
 -->
<!-- Title: controllers_diagram Pages: 1 -->
<svg width="806pt" height="759pt"
 viewBox="0.00 0.00 805.90 759.00" xmlns="http://www.w3.org/2000/svg" xmlns:xlink="http://www.w3.org/1999/xlink">
<g id="graph0" class="graph" transform="scale(1 1) rotate(0) translate(283.935 435.5)">
<title>controllers_diagram</title>
<polygon fill="white" stroke="none" points="-283.935,323.5 -283.935,-435.5 521.966,-435.5 521.966,323.5 -283.935,323.5"/>
<!-- _diagram_info -->
<g id="node1" class="node"><title>_diagram_info</title>
<text text-anchor="start" x="-271.688" y="220.9" font-family="Times,serif" font-size="13.00">Controllers diagram</text>
<text text-anchor="start" x="-271.688" y="233.9" font-family="Times,serif" font-size="13.00">Date: Mar 12 2015 &#45; 14:35</text>
<text text-anchor="start" x="-271.688" y="246.9" font-family="Times,serif" font-size="13.00">Migration version: 20150217143140</text>
<text text-anchor="start" x="-271.688" y="259.9" font-family="Times,serif" font-size="13.00">Generated by RailRoady 1.3.0</text>
<text text-anchor="start" x="-271.688" y="272.9" font-family="Times,serif" font-size="13.00">http://railroady.prestonlee.com</text>
</g>
<!-- ApplicationController -->
<g id="node2" class="node"><title>ApplicationController</title>
<path fill="none" stroke="black" d="M332.034,-41C332.034,-41 505.966,-41 505.966,-41 511.966,-41 517.966,-47 517.966,-53 517.966,-53 517.966,-117 517.966,-117 517.966,-123 511.966,-129 505.966,-129 505.966,-129 332.034,-129 332.034,-129 326.034,-129 320.034,-123 320.034,-117 320.034,-117 320.034,-53 320.034,-53 320.034,-47 326.034,-41 332.034,-41"/>
<text text-anchor="middle" x="419" y="-113.8" font-family="Times,serif" font-size="14.00">ApplicationController</text>
<polyline fill="none" stroke="black" points="320.034,-107 517.966,-107 "/>
<text text-anchor="start" x="328.034" y="-91.8" font-family="Times,serif" font-size="14.00">after_sign_in_path_for</text>
<polyline fill="none" stroke="black" points="320.034,-85 517.966,-85 "/>
<text text-anchor="start" x="328.034" y="-69.8" font-family="Times,serif" font-size="14.00">configure_permitted_parameters</text>
<polyline fill="none" stroke="black" points="320.034,-63 517.966,-63 "/>
<text text-anchor="start" x="328.034" y="-47.8" font-family="Times,serif" font-size="14.00">_layout</text>
</g>
<!-- CategoriesController -->
<g id="node3" class="node"><title>CategoriesController</title>
<path fill="none" stroke="black" d="M-167.707,-201C-167.707,-201 -58.293,-201 -58.293,-201 -52.293,-201 -46.293,-207 -46.293,-213 -46.293,-213 -46.293,-377 -46.293,-377 -46.293,-383 -52.293,-389 -58.293,-389 -58.293,-389 -167.707,-389 -167.707,-389 -173.707,-389 -179.707,-383 -179.707,-377 -179.707,-377 -179.707,-213 -179.707,-213 -179.707,-207 -173.707,-201 -167.707,-201"/>
<text text-anchor="middle" x="-113" y="-373.8" font-family="Times,serif" font-size="14.00">CategoriesController</text>
<polyline fill="none" stroke="black" points="-179.707,-367 -46.293,-367 "/>
<text text-anchor="start" x="-171.707" y="-351.8" font-family="Times,serif" font-size="14.00">create</text>
<text text-anchor="start" x="-171.707" y="-337.8" font-family="Times,serif" font-size="14.00">edit</text>
<text text-anchor="start" x="-171.707" y="-323.8" font-family="Times,serif" font-size="14.00">index</text>
<text text-anchor="start" x="-171.707" y="-309.8" font-family="Times,serif" font-size="14.00">show</text>
<text text-anchor="start" x="-171.707" y="-295.8" font-family="Times,serif" font-size="14.00">update</text>
<polyline fill="none" stroke="black" points="-179.707,-289 -46.293,-289 "/>
<polyline fill="none" stroke="black" points="-179.707,-265 -46.293,-265 "/>
<text text-anchor="start" x="-171.707" y="-249.8" font-family="Times,serif" font-size="14.00">_layout</text>
<text text-anchor="start" x="-171.707" y="-235.8" font-family="Times,serif" font-size="14.00">set_category</text>
<text text-anchor="start" x="-171.707" y="-221.8" font-family="Times,serif" font-size="14.00">set_patient</text>
<text text-anchor="start" x="-171.707" y="-207.8" font-family="Times,serif" font-size="14.00">strong_params</text>
</g>
<!-- DataModulesController -->
<g id="node4" class="node"><title>DataModulesController</title>
<path fill="none" stroke="black" d="M151.514,139C151.514,139 276.486,139 276.486,139 282.486,139 288.486,133 288.486,127 288.486,127 288.486,-107 288.486,-107 288.486,-113 282.486,-119 276.486,-119 276.486,-119 151.514,-119 151.514,-119 145.514,-119 139.514,-113 139.514,-107 139.514,-107 139.514,127 139.514,127 139.514,133 145.514,139 151.514,139"/>
<text text-anchor="middle" x="214" y="-103.8" font-family="Times,serif" font-size="14.00">DataModulesController</text>
<polyline fill="none" stroke="black" points="139.514,-97 288.486,-97 "/>
<text text-anchor="start" x="147.514" y="-81.8" font-family="Times,serif" font-size="14.00">all</text>
<text text-anchor="start" x="147.514" y="-67.8" font-family="Times,serif" font-size="14.00">create</text>
<text text-anchor="start" x="147.514" y="-53.8" font-family="Times,serif" font-size="14.00">destroy</text>
<text text-anchor="start" x="147.514" y="-39.8" font-family="Times,serif" font-size="14.00">edit</text>
<text text-anchor="start" x="147.514" y="-25.8" font-family="Times,serif" font-size="14.00">new</text>
<text text-anchor="start" x="147.514" y="-11.8" font-family="Times,serif" font-size="14.00">show</text>
<text text-anchor="start" x="147.514" y="2.2" font-family="Times,serif" font-size="14.00">update</text>
<polyline fill="none" stroke="black" points="139.514,9 288.486,9 "/>
<polyline fill="none" stroke="black" points="139.514,33 288.486,33 "/>
<text text-anchor="start" x="147.514" y="48.2" font-family="Times,serif" font-size="14.00">_layout</text>
<text text-anchor="start" x="147.514" y="62.2" font-family="Times,serif" font-size="14.00">data_module_params</text>
<text text-anchor="start" x="147.514" y="76.2" font-family="Times,serif" font-size="14.00">populate_form</text>
<text text-anchor="start" x="147.514" y="90.2" font-family="Times,serif" font-size="14.00">set_cat</text>
<text text-anchor="start" x="147.514" y="104.2" font-family="Times,serif" font-size="14.00">set_module</text>
<text text-anchor="start" x="147.514" y="118.2" font-family="Times,serif" font-size="14.00">strong_params</text>
<text text-anchor="start" x="147.514" y="132.2" font-family="Times,serif" font-size="14.00">subcat_path</text>
</g>
<!-- DoctorsController -->
<g id="node5" class="node"><title>DoctorsController</title>
<path fill="none" stroke="black" d="M-267.935,39C-267.935,39 -174.065,39 -174.065,39 -168.065,39 -162.065,33 -162.065,27 -162.065,27 -162.065,-151 -162.065,-151 -162.065,-157 -168.065,-163 -174.065,-163 -174.065,-163 -267.935,-163 -267.935,-163 -273.935,-163 -279.935,-157 -279.935,-151 -279.935,-151 -279.935,27 -279.935,27 -279.935,33 -273.935,39 -267.935,39"/>
<text text-anchor="middle" x="-221" y="-147.8" font-family="Times,serif" font-size="14.00">DoctorsController</text>
<polyline fill="none" stroke="black" points="-279.935,-141 -162.065,-141 "/>
<text text-anchor="start" x="-271.935" y="-125.8" font-family="Times,serif" font-size="14.00">create</text>
<text text-anchor="start" x="-271.935" y="-111.8" font-family="Times,serif" font-size="14.00">destroy</text>
<text text-anchor="start" x="-271.935" y="-97.8" font-family="Times,serif" font-size="14.00">edit</text>
<text text-anchor="start" x="-271.935" y="-83.8" font-family="Times,serif" font-size="14.00">info</text>
<text text-anchor="start" x="-271.935" y="-69.8" font-family="Times,serif" font-size="14.00">new</text>
<text text-anchor="start" x="-271.935" y="-55.8" font-family="Times,serif" font-size="14.00">show</text>
<text text-anchor="start" x="-271.935" y="-41.8" font-family="Times,serif" font-size="14.00">update</text>
<polyline fill="none" stroke="black" points="-279.935,-35 -162.065,-35 "/>
<polyline fill="none" stroke="black" points="-279.935,-11 -162.065,-11 "/>
<text text-anchor="start" x="-271.935" y="4.2" font-family="Times,serif" font-size="14.00">_layout</text>
<text text-anchor="start" x="-271.935" y="18.2" font-family="Times,serif" font-size="14.00">doctor_params</text>
<text text-anchor="start" x="-271.935" y="32.2" font-family="Times,serif" font-size="14.00">set_doctor</text>
</g>
<!-- HomeController -->
<g id="node6" class="node"><title>HomeController</title>
<path fill="none" stroke="black" d="M-247.879,159C-247.879,159 -164.121,159 -164.121,159 -158.121,159 -152.121,153 -152.121,147 -152.121,147 -152.121,81 -152.121,81 -152.121,75 -158.121,69 -164.121,69 -164.121,69 -247.879,69 -247.879,69 -253.879,69 -259.879,75 -259.879,81 -259.879,81 -259.879,147 -259.879,147 -259.879,153 -253.879,159 -247.879,159"/>
<text text-anchor="middle" x="-206" y="84.2" font-family="Times,serif" font-size="14.00">HomeController</text>
<polyline fill="none" stroke="black" points="-259.879,91 -152.121,91 "/>
<text text-anchor="start" x="-251.879" y="106.2" font-family="Times,serif" font-size="14.00">eula</text>
<polyline fill="none" stroke="black" points="-259.879,113 -152.121,113 "/>
<polyline fill="none" stroke="black" points="-259.879,137 -152.121,137 "/>
<text text-anchor="start" x="-251.879" y="152.2" font-family="Times,serif" font-size="14.00">_layout</text>
</g>
<!-- PatientsController -->
<g id="node7" class="node"><title>PatientsController</title>
<path fill="none" stroke="black" d="M171.627,-161C171.627,-161 276.373,-161 276.373,-161 282.373,-161 288.373,-167 288.373,-173 288.373,-173 288.373,-365 288.373,-365 288.373,-371 282.373,-377 276.373,-377 276.373,-377 171.627,-377 171.627,-377 165.627,-377 159.627,-371 159.627,-365 159.627,-365 159.627,-173 159.627,-173 159.627,-167 165.627,-161 171.627,-161"/>
<text text-anchor="middle" x="224" y="-361.8" font-family="Times,serif" font-size="14.00">PatientsController</text>
<polyline fill="none" stroke="black" points="159.627,-355 288.373,-355 "/>
<text text-anchor="start" x="167.627" y="-339.8" font-family="Times,serif" font-size="14.00">create</text>
<text text-anchor="start" x="167.627" y="-325.8" font-family="Times,serif" font-size="14.00">destroy</text>
<text text-anchor="start" x="167.627" y="-311.8" font-family="Times,serif" font-size="14.00">edit</text>
<text text-anchor="start" x="167.627" y="-297.8" font-family="Times,serif" font-size="14.00">index</text>
<text text-anchor="start" x="167.627" y="-283.8" font-family="Times,serif" font-size="14.00">new</text>
<text text-anchor="start" x="167.627" y="-269.8" font-family="Times,serif" font-size="14.00">show</text>
<text text-anchor="start" x="167.627" y="-255.8" font-family="Times,serif" font-size="14.00">update</text>
<polyline fill="none" stroke="black" points="159.627,-249 288.373,-249 "/>
<polyline fill="none" stroke="black" points="159.627,-225 288.373,-225 "/>
<text text-anchor="start" x="167.627" y="-209.8" font-family="Times,serif" font-size="14.00">_layout</text>
<text text-anchor="start" x="167.627" y="-195.8" font-family="Times,serif" font-size="14.00">current_modules_of</text>
<text text-anchor="start" x="167.627" y="-181.8" font-family="Times,serif" font-size="14.00">patient_params</text>
<text text-anchor="start" x="167.627" y="-167.8" font-family="Times,serif" font-size="14.00">set_patient</text>
</g>
<!-- SubcategoriesController -->
<g id="node8" class="node"><title>SubcategoriesController</title>
<path fill="none" stroke="black" d="M331.962,139C331.962,139 460.038,139 460.038,139 466.038,139 472.038,133 472.038,127 472.038,127 472.038,5 472.038,5 472.038,-1 466.038,-7 460.038,-7 460.038,-7 331.962,-7 331.962,-7 325.962,-7 319.962,-1 319.962,5 319.962,5 319.962,127 319.962,127 319.962,133 325.962,139 331.962,139"/>
<text text-anchor="middle" x="396" y="8.2" font-family="Times,serif" font-size="14.00">SubcategoriesController</text>
<polyline fill="none" stroke="black" points="319.962,15 472.038,15 "/>
<text text-anchor="start" x="327.962" y="30.2" font-family="Times,serif" font-size="14.00">create</text>
<text text-anchor="start" x="327.962" y="44.2" font-family="Times,serif" font-size="14.00">show</text>
<text text-anchor="start" x="327.962" y="58.2" font-family="Times,serif" font-size="14.00">update</text>
<polyline fill="none" stroke="black" points="319.962,65 472.038,65 "/>
<polyline fill="none" stroke="black" points="319.962,89 472.038,89 "/>
<text text-anchor="start" x="327.962" y="104.2" font-family="Times,serif" font-size="14.00">_layout</text>
<text text-anchor="start" x="327.962" y="118.2" font-family="Times,serif" font-size="14.00">set_subcat</text>
<text text-anchor="start" x="327.962" y="132.2" font-family="Times,serif" font-size="14.00">strong_params</text>
</g>
<!-- TeamsController -->
<g id="node9" class="node"><title>TeamsController</title>
<path fill="none" stroke="black" d="M11.5137,-201C11.5137,-201 108.486,-201 108.486,-201 114.486,-201 120.486,-207 120.486,-213 120.486,-213 120.486,-419 120.486,-419 120.486,-425 114.486,-431 108.486,-431 108.486,-431 11.5137,-431 11.5137,-431 5.51367,-431 -0.486328,-425 -0.486328,-419 -0.486328,-419 -0.486328,-213 -0.486328,-213 -0.486328,-207 5.51367,-201 11.5137,-201"/>
<text text-anchor="middle" x="60" y="-415.8" font-family="Times,serif" font-size="14.00">TeamsController</text>
<polyline fill="none" stroke="black" points="-0.486328,-409 120.486,-409 "/>
<text text-anchor="start" x="7.51367" y="-393.8" font-family="Times,serif" font-size="14.00">create</text>
<text text-anchor="start" x="7.51367" y="-379.8" font-family="Times,serif" font-size="14.00">destroy</text>
<text text-anchor="start" x="7.51367" y="-365.8" font-family="Times,serif" font-size="14.00">index</text>
<text text-anchor="start" x="7.51367" y="-351.8" font-family="Times,serif" font-size="14.00">show</text>
<text text-anchor="start" x="7.51367" y="-337.8" font-family="Times,serif" font-size="14.00">update</text>
<polyline fill="none" stroke="black" points="-0.486328,-331 120.486,-331 "/>
<polyline fill="none" stroke="black" points="-0.486328,-307 120.486,-307 "/>
<text text-anchor="start" x="7.51367" y="-291.8" font-family="Times,serif" font-size="14.00">_layout</text>
<text text-anchor="start" x="7.51367" y="-277.8" font-family="Times,serif" font-size="14.00">add_member</text>
<text text-anchor="start" x="7.51367" y="-263.8" font-family="Times,serif" font-size="14.00">convert_into_class</text>
<text text-anchor="start" x="7.51367" y="-249.8" font-family="Times,serif" font-size="14.00">remove_member</text>
<text text-anchor="start" x="7.51367" y="-235.8" font-family="Times,serif" font-size="14.00">set_target</text>
<text text-anchor="start" x="7.51367" y="-221.8" font-family="Times,serif" font-size="14.00">set_team</text>
<text text-anchor="start" x="7.51367" y="-207.8" font-family="Times,serif" font-size="14.00">strong_params</text>
</g>
<!-- TreatmentModulesController -->
<g id="node10" class="node"><title>TreatmentModulesController</title>
<path fill="none" stroke="black" d="M152.208,319C152.208,319 307.792,319 307.792,319 313.792,319 319.792,313 319.792,307 319.792,307 319.792,185 319.792,185 319.792,179 313.792,173 307.792,173 307.792,173 152.208,173 152.208,173 146.208,173 140.208,179 140.208,185 140.208,185 140.208,307 140.208,307 140.208,313 146.208,319 152.208,319"/>
<text text-anchor="middle" x="230" y="188.2" font-family="Times,serif" font-size="14.00">TreatmentModulesController</text>
<polyline fill="none" stroke="black" points="140.208,195 319.792,195 "/>
<text text-anchor="start" x="148.208" y="210.2" font-family="Times,serif" font-size="14.00">all</text>
<text text-anchor="start" x="148.208" y="224.2" font-family="Times,serif" font-size="14.00">create</text>
<text text-anchor="start" x="148.208" y="238.2" font-family="Times,serif" font-size="14.00">new</text>
<polyline fill="none" stroke="black" points="140.208,245 319.792,245 "/>
<polyline fill="none" stroke="black" points="140.208,269 319.792,269 "/>
<text text-anchor="start" x="148.208" y="284.2" font-family="Times,serif" font-size="14.00">_layout</text>
<text text-anchor="start" x="148.208" y="298.2" font-family="Times,serif" font-size="14.00">assert_user_exists</text>
<text text-anchor="start" x="148.208" y="312.2" font-family="Times,serif" font-size="14.00">secure_params</text>
</g>
<!-- TreatmentStatesController -->
<g id="node11" class="node"><title>TreatmentStatesController</title>
<path fill="none" stroke="black" d="M-107.804,159C-107.804,159 91.8037,159 91.8037,159 97.8037,159 103.804,153 103.804,147 103.804,147 103.804,-143 103.804,-143 103.804,-149 97.8037,-155 91.8037,-155 91.8037,-155 -107.804,-155 -107.804,-155 -113.804,-155 -119.804,-149 -119.804,-143 -119.804,-143 -119.804,147 -119.804,147 -119.804,153 -113.804,159 -107.804,159"/>
<text text-anchor="middle" x="-8" y="-139.8" font-family="Times,serif" font-size="14.00">TreatmentStatesController</text>
<polyline fill="none" stroke="black" points="-119.804,-133 103.804,-133 "/>
<text text-anchor="start" x="-111.804" y="-117.8" font-family="Times,serif" font-size="14.00">create</text>
<text text-anchor="start" x="-111.804" y="-103.8" font-family="Times,serif" font-size="14.00">edit</text>
<text text-anchor="start" x="-111.804" y="-89.8" font-family="Times,serif" font-size="14.00">index</text>
<text text-anchor="start" x="-111.804" y="-75.8" font-family="Times,serif" font-size="14.00">show</text>
<text text-anchor="start" x="-111.804" y="-61.8" font-family="Times,serif" font-size="14.00">update</text>
<polyline fill="none" stroke="black" points="-119.804,-55 103.804,-55 "/>
<polyline fill="none" stroke="black" points="-119.804,-31 103.804,-31 "/>
<text text-anchor="start" x="-111.804" y="-15.8" font-family="Times,serif" font-size="14.00">_layout</text>
<text text-anchor="start" x="-111.804" y="-1.8" font-family="Times,serif" font-size="14.00">assert_no_treatment_state_exists_for</text>
<text text-anchor="start" x="-111.804" y="12.2" font-family="Times,serif" font-size="14.00">assert_treatment_state_exists_for</text>
<text text-anchor="start" x="-111.804" y="26.2" font-family="Times,serif" font-size="14.00">set_active_cat</text>
<text text-anchor="start" x="-111.804" y="40.2" font-family="Times,serif" font-size="14.00">set_active_subcat</text>
<text text-anchor="start" x="-111.804" y="54.2" font-family="Times,serif" font-size="14.00">set_category</text>
<text text-anchor="start" x="-111.804" y="68.2" font-family="Times,serif" font-size="14.00">set_most_recent_state</text>
<text text-anchor="start" x="-111.804" y="82.2" font-family="Times,serif" font-size="14.00">set_patient</text>
<text text-anchor="start" x="-111.804" y="96.2" font-family="Times,serif" font-size="14.00">set_state</text>
<text text-anchor="start" x="-111.804" y="110.2" font-family="Times,serif" font-size="14.00">strong_params</text>
<text text-anchor="start" x="-111.804" y="124.2" font-family="Times,serif" font-size="14.00">treatment_state_params</text>
<text text-anchor="start" x="-111.804" y="138.2" font-family="Times,serif" font-size="14.00">update_params</text>
<text text-anchor="start" x="-111.804" y="152.2" font-family="Times,serif" font-size="14.00">update_treatment_state</text>
</g>
</g>
</svg>
