<?xml version="1.0" encoding="UTF-8" standalone="no"?>
<!DOCTYPE svg PUBLIC "-//W3C//DTD SVG 1.1//EN"
 "http://www.w3.org/Graphics/SVG/1.1/DTD/svg11.dtd">
<!-- Generated by graphviz version 2.38.0 (20140413.2041)
 -->
<!-- Title: models_diagram Pages: 1 -->
<svg width="857pt" height="1088pt"
 viewBox="0.00 0.00 857.46 1088.00" xmlns="http://www.w3.org/2000/svg" xmlns:xlink="http://www.w3.org/1999/xlink">
<g id="graph0" class="graph" transform="scale(1 1) rotate(0) translate(4 1084)">
<title>models_diagram</title>
<polygon fill="white" stroke="none" points="-4,4 -4,-1084 853.456,-1084 853.456,4 -4,4"/>
<!-- _diagram_info -->
<g id="node1" class="node"><title>_diagram_info</title>
<text text-anchor="start" x="25.8176" y="-1065.6" font-family="Times,serif" font-size="13.00">Models diagram</text>
<text text-anchor="start" x="25.8176" y="-1052.6" font-family="Times,serif" font-size="13.00">Date: Mar 30 2015 &#45; 10:39</text>
<text text-anchor="start" x="25.8176" y="-1039.6" font-family="Times,serif" font-size="13.00">Migration version: 20150329122232</text>
<text text-anchor="start" x="25.8176" y="-1026.6" font-family="Times,serif" font-size="13.00">Generated by RailRoady 1.3.0</text>
<text text-anchor="start" x="25.8176" y="-1013.6" font-family="Times,serif" font-size="13.00">http://railroady.prestonlee.com</text>
</g>
<!-- Category -->
<g id="node2" class="node"><title>Category</title>
<path fill="none" stroke="black" d="M58,-523.5C58,-523.5 167.011,-523.5 167.011,-523.5 173.011,-523.5 179.011,-529.5 179.011,-535.5 179.011,-535.5 179.011,-611.5 179.011,-611.5 179.011,-617.5 173.011,-623.5 167.011,-623.5 167.011,-623.5 58,-623.5 58,-623.5 52,-623.5 46,-617.5 46,-611.5 46,-611.5 46,-535.5 46,-535.5 46,-529.5 52,-523.5 58,-523.5"/>
<text text-anchor="middle" x="112.505" y="-608.3" font-family="Times,serif" font-size="14.00">Category</text>
<polyline fill="none" stroke="black" points="46,-601.5 179.011,-601.5 "/>
<text text-anchor="start" x="54" y="-586.3" font-family="Times,serif" font-size="14.00">id :integer</text>
<text text-anchor="start" x="54" y="-572.3" font-family="Times,serif" font-size="14.00">name :string</text>
<text text-anchor="start" x="54" y="-558.3" font-family="Times,serif" font-size="14.00">icon :string</text>
<text text-anchor="start" x="54" y="-544.3" font-family="Times,serif" font-size="14.00">created_at :datetime</text>
<text text-anchor="start" x="54" y="-530.3" font-family="Times,serif" font-size="14.00">updated_at :datetime</text>
</g>
<!-- DataModule -->
<g id="node3" class="node"><title>DataModule</title>
<path fill="none" stroke="black" d="M81.6104,-302.5C81.6104,-302.5 205.4,-302.5 205.4,-302.5 211.4,-302.5 217.4,-308.5 217.4,-314.5 217.4,-314.5 217.4,-404.5 217.4,-404.5 217.4,-410.5 211.4,-416.5 205.4,-416.5 205.4,-416.5 81.6104,-416.5 81.6104,-416.5 75.6104,-416.5 69.6104,-410.5 69.6104,-404.5 69.6104,-404.5 69.6104,-314.5 69.6104,-314.5 69.6104,-308.5 75.6104,-302.5 81.6104,-302.5"/>
<text text-anchor="middle" x="143.505" y="-401.3" font-family="Times,serif" font-size="14.00">DataModule</text>
<polyline fill="none" stroke="black" points="69.6104,-394.5 217.4,-394.5 "/>
<text text-anchor="start" x="77.6104" y="-379.3" font-family="Times,serif" font-size="14.00">id :integer</text>
<text text-anchor="start" x="77.6104" y="-365.3" font-family="Times,serif" font-size="14.00">data :text</text>
<text text-anchor="start" x="77.6104" y="-351.3" font-family="Times,serif" font-size="14.00">subcategory_id :integer</text>
<text text-anchor="start" x="77.6104" y="-337.3" font-family="Times,serif" font-size="14.00">created_at :datetime</text>
<text text-anchor="start" x="77.6104" y="-323.3" font-family="Times,serif" font-size="14.00">updated_at :datetime</text>
<text text-anchor="start" x="77.6104" y="-309.3" font-family="Times,serif" font-size="14.00">title :string</text>
</g>
<!-- Category&#45;&gt;DataModule -->
<g id="edge2" class="edge"><title>Category&#45;&gt;DataModule</title>
<path fill="none" stroke="#d2b72e" d="M121.159,-513.32C125.105,-486.338 129.791,-454.291 133.85,-426.529"/>
<polygon fill="#d2b72e" stroke="#d2b72e" points="121.142,-513.435 115.243,-522.679 120.419,-518.383 119.695,-523.33 119.695,-523.33 119.695,-523.33 120.419,-518.383 124.148,-523.981 121.142,-513.435 121.142,-513.435"/>
<polygon fill="#d2b72e" stroke="#d2b72e" points="133.868,-426.407 139.768,-417.164 134.591,-421.46 135.315,-416.513 135.315,-416.513 135.315,-416.513 134.591,-421.46 130.862,-415.861 133.868,-426.407 133.868,-426.407"/>
</g>
<!-- Subcategory -->
<g id="node8" class="node"><title>Subcategory</title>
<path fill="none" stroke="black" d="M12,-0.5C12,-0.5 121.011,-0.5 121.011,-0.5 127.011,-0.5 133.011,-6.5 133.011,-12.5 133.011,-12.5 133.011,-88.5 133.011,-88.5 133.011,-94.5 127.011,-100.5 121.011,-100.5 121.011,-100.5 12,-100.5 12,-100.5 6,-100.5 0,-94.5 0,-88.5 0,-88.5 0,-12.5 0,-12.5 0,-6.5 6,-0.5 12,-0.5"/>
<text text-anchor="middle" x="66.5054" y="-85.3" font-family="Times,serif" font-size="14.00">Subcategory</text>
<polyline fill="none" stroke="black" points="0,-78.5 133.011,-78.5 "/>
<text text-anchor="start" x="8" y="-63.3" font-family="Times,serif" font-size="14.00">id :integer</text>
<text text-anchor="start" x="8" y="-49.3" font-family="Times,serif" font-size="14.00">name :string</text>
<text text-anchor="start" x="8" y="-35.3" font-family="Times,serif" font-size="14.00">category_id :integer</text>
<text text-anchor="start" x="8" y="-21.3" font-family="Times,serif" font-size="14.00">created_at :datetime</text>
<text text-anchor="start" x="8" y="-7.3" font-family="Times,serif" font-size="14.00">updated_at :datetime</text>
</g>
<!-- Category&#45;&gt;Subcategory -->
<g id="edge1" class="edge"><title>Category&#45;&gt;Subcategory</title>
<path fill="none" stroke="#1bee85" d="M88.6614,-515.868C77.7219,-486.866 65.9839,-450.658 60.5054,-417 43.1345,-310.281 51.5421,-183.725 59.1101,-111.003"/>
<ellipse fill="none" stroke="#1bee85" cx="90.1395" cy="-519.728" rx="4.00001" ry="4.00001"/>
<polygon fill="#1bee85" stroke="#1bee85" points="59.1515,-110.615 64.6918,-101.152 59.6845,-105.644 60.2174,-100.672 60.2174,-100.672 60.2174,-100.672 59.6845,-105.644 55.7431,-100.193 59.1515,-110.615 59.1515,-110.615"/>
</g>
<!-- TreatmentModule -->
<g id="node10" class="node"><title>TreatmentModule</title>
<path fill="none" stroke="black" d="M288.672,-0.5C288.672,-0.5 430.338,-0.5 430.338,-0.5 436.338,-0.5 442.338,-6.5 442.338,-12.5 442.338,-12.5 442.338,-88.5 442.338,-88.5 442.338,-94.5 436.338,-100.5 430.338,-100.5 430.338,-100.5 288.672,-100.5 288.672,-100.5 282.672,-100.5 276.672,-94.5 276.672,-88.5 276.672,-88.5 276.672,-12.5 276.672,-12.5 276.672,-6.5 282.672,-0.5 288.672,-0.5"/>
<text text-anchor="middle" x="359.505" y="-85.3" font-family="Times,serif" font-size="14.00">TreatmentModule</text>
<polyline fill="none" stroke="black" points="276.672,-78.5 442.338,-78.5 "/>
<text text-anchor="start" x="284.672" y="-63.3" font-family="Times,serif" font-size="14.00">id :integer</text>
<text text-anchor="start" x="284.672" y="-49.3" font-family="Times,serif" font-size="14.00">treatment_state_id :integer</text>
<text text-anchor="start" x="284.672" y="-35.3" font-family="Times,serif" font-size="14.00">created_at :datetime</text>
<text text-anchor="start" x="284.672" y="-21.3" font-family="Times,serif" font-size="14.00">updated_at :datetime</text>
<text text-anchor="start" x="284.672" y="-7.3" font-family="Times,serif" font-size="14.00">data_module_id :integer</text>
</g>
<!-- DataModule&#45;&gt;TreatmentModule -->
<g id="edge4" class="edge"><title>DataModule&#45;&gt;TreatmentModule</title>
<path fill="none" stroke="#93fe9f" d="M135.139,-293.92C132.461,-246.156 136.621,-181.875 169.505,-137 192.861,-105.128 230.88,-84.8878 266.796,-72.1564"/>
<ellipse fill="none" stroke="#93fe9f" cx="135.408" cy="-298.046" rx="4" ry="4"/>
<polygon fill="#93fe9f" stroke="#93fe9f" points="266.89,-72.1249 277.804,-73.183 271.626,-70.5226 276.362,-68.9203 276.362,-68.9203 276.362,-68.9203 271.626,-70.5226 274.92,-64.6576 266.89,-72.1249 266.89,-72.1249"/>
</g>
<!-- TreatmentState -->
<g id="node11" class="node"><title>TreatmentState</title>
<path fill="none" stroke="black" d="M191,-137.5C191,-137.5 300.011,-137.5 300.011,-137.5 306.011,-137.5 312.011,-143.5 312.011,-149.5 312.011,-149.5 312.011,-253.5 312.011,-253.5 312.011,-259.5 306.011,-265.5 300.011,-265.5 300.011,-265.5 191,-265.5 191,-265.5 185,-265.5 179,-259.5 179,-253.5 179,-253.5 179,-149.5 179,-149.5 179,-143.5 185,-137.5 191,-137.5"/>
<text text-anchor="middle" x="245.505" y="-250.3" font-family="Times,serif" font-size="14.00">TreatmentState</text>
<polyline fill="none" stroke="black" points="179,-243.5 312.011,-243.5 "/>
<text text-anchor="start" x="187" y="-228.3" font-family="Times,serif" font-size="14.00">id :integer</text>
<text text-anchor="start" x="187" y="-214.3" font-family="Times,serif" font-size="14.00">timeframe :string</text>
<text text-anchor="start" x="187" y="-200.3" font-family="Times,serif" font-size="14.00">pathway_id :integer</text>
<text text-anchor="start" x="187" y="-186.3" font-family="Times,serif" font-size="14.00">created_at :datetime</text>
<text text-anchor="start" x="187" y="-172.3" font-family="Times,serif" font-size="14.00">updated_at :datetime</text>
<text text-anchor="start" x="187" y="-158.3" font-family="Times,serif" font-size="14.00">default :boolean</text>
<text text-anchor="start" x="187" y="-144.3" font-family="Times,serif" font-size="14.00">assigned_date :date</text>
</g>
<!-- DataModule&#45;&gt;TreatmentState -->
<g id="edge5" class="edge"><title>DataModule&#45;&gt;TreatmentState</title>
<path fill="none" stroke="#16bbcf" d="M178.282,-295.152C182.66,-288.302 187.212,-281.295 191.792,-274.354"/>
<ellipse fill="none" stroke="#16bbcf" cx="175.962" cy="-298.804" rx="4.00002" ry="4.00002"/>
<polygon fill="#16bbcf" stroke="#16bbcf" points="192.065,-273.943 201.347,-268.104 194.832,-269.779 197.599,-265.614 197.599,-265.614 197.599,-265.614 194.832,-269.779 193.851,-263.124 192.065,-273.943 192.065,-273.943"/>
</g>
<!-- Doctor -->
<g id="node4" class="node"><title>Doctor</title>
<path fill="none" stroke="black" d="M383.228,-730.5C383.228,-730.5 563.783,-730.5 563.783,-730.5 569.783,-730.5 575.783,-736.5 575.783,-742.5 575.783,-742.5 575.783,-958.5 575.783,-958.5 575.783,-964.5 569.783,-970.5 563.783,-970.5 563.783,-970.5 383.228,-970.5 383.228,-970.5 377.228,-970.5 371.228,-964.5 371.228,-958.5 371.228,-958.5 371.228,-742.5 371.228,-742.5 371.228,-736.5 377.228,-730.5 383.228,-730.5"/>
<text text-anchor="middle" x="473.505" y="-955.3" font-family="Times,serif" font-size="14.00">Doctor</text>
<polyline fill="none" stroke="black" points="371.228,-948.5 575.783,-948.5 "/>
<text text-anchor="start" x="379.228" y="-933.3" font-family="Times,serif" font-size="14.00">id :integer</text>
<text text-anchor="start" x="379.228" y="-919.3" font-family="Times,serif" font-size="14.00">created_at :datetime</text>
<text text-anchor="start" x="379.228" y="-905.3" font-family="Times,serif" font-size="14.00">updated_at :datetime</text>
<text text-anchor="start" x="379.228" y="-891.3" font-family="Times,serif" font-size="14.00">email :string</text>
<text text-anchor="start" x="379.228" y="-877.3" font-family="Times,serif" font-size="14.00">encrypted_password :string</text>
<text text-anchor="start" x="379.228" y="-863.3" font-family="Times,serif" font-size="14.00">reset_password_token :string</text>
<text text-anchor="start" x="379.228" y="-849.3" font-family="Times,serif" font-size="14.00">reset_password_sent_at :datetime</text>
<text text-anchor="start" x="379.228" y="-835.3" font-family="Times,serif" font-size="14.00">remember_created_at :datetime</text>
<text text-anchor="start" x="379.228" y="-821.3" font-family="Times,serif" font-size="14.00">sign_in_count :integer</text>
<text text-anchor="start" x="379.228" y="-807.3" font-family="Times,serif" font-size="14.00">current_sign_in_at :datetime</text>
<text text-anchor="start" x="379.228" y="-793.3" font-family="Times,serif" font-size="14.00">last_sign_in_at :datetime</text>
<text text-anchor="start" x="379.228" y="-779.3" font-family="Times,serif" font-size="14.00">current_sign_in_ip :string</text>
<text text-anchor="start" x="379.228" y="-765.3" font-family="Times,serif" font-size="14.00">last_sign_in_ip :string</text>
<text text-anchor="start" x="379.228" y="-751.3" font-family="Times,serif" font-size="14.00">name :string</text>
<text text-anchor="start" x="379.228" y="-737.3" font-family="Times,serif" font-size="14.00">superuser :boolean</text>
</g>
<!-- Patient -->
<g id="node7" class="node"><title>Patient</title>
<path fill="none" stroke="black" d="M345.228,-453.5C345.228,-453.5 525.783,-453.5 525.783,-453.5 531.783,-453.5 537.783,-459.5 537.783,-465.5 537.783,-465.5 537.783,-681.5 537.783,-681.5 537.783,-687.5 531.783,-693.5 525.783,-693.5 525.783,-693.5 345.228,-693.5 345.228,-693.5 339.228,-693.5 333.228,-687.5 333.228,-681.5 333.228,-681.5 333.228,-465.5 333.228,-465.5 333.228,-459.5 339.228,-453.5 345.228,-453.5"/>
<text text-anchor="middle" x="435.505" y="-678.3" font-family="Times,serif" font-size="14.00">Patient</text>
<polyline fill="none" stroke="black" points="333.228,-671.5 537.783,-671.5 "/>
<text text-anchor="start" x="341.228" y="-656.3" font-family="Times,serif" font-size="14.00">id :integer</text>
<text text-anchor="start" x="341.228" y="-642.3" font-family="Times,serif" font-size="14.00">created_at :datetime</text>
<text text-anchor="start" x="341.228" y="-628.3" font-family="Times,serif" font-size="14.00">updated_at :datetime</text>
<text text-anchor="start" x="341.228" y="-614.3" font-family="Times,serif" font-size="14.00">name :string</text>
<text text-anchor="start" x="341.228" y="-600.3" font-family="Times,serif" font-size="14.00">nhs_number :integer</text>
<text text-anchor="start" x="341.228" y="-586.3" font-family="Times,serif" font-size="14.00">email :string</text>
<text text-anchor="start" x="341.228" y="-572.3" font-family="Times,serif" font-size="14.00">encrypted_password :string</text>
<text text-anchor="start" x="341.228" y="-558.3" font-family="Times,serif" font-size="14.00">reset_password_token :string</text>
<text text-anchor="start" x="341.228" y="-544.3" font-family="Times,serif" font-size="14.00">reset_password_sent_at :datetime</text>
<text text-anchor="start" x="341.228" y="-530.3" font-family="Times,serif" font-size="14.00">remember_created_at :datetime</text>
<text text-anchor="start" x="341.228" y="-516.3" font-family="Times,serif" font-size="14.00">sign_in_count :integer</text>
<text text-anchor="start" x="341.228" y="-502.3" font-family="Times,serif" font-size="14.00">current_sign_in_at :datetime</text>
<text text-anchor="start" x="341.228" y="-488.3" font-family="Times,serif" font-size="14.00">last_sign_in_at :datetime</text>
<text text-anchor="start" x="341.228" y="-474.3" font-family="Times,serif" font-size="14.00">current_sign_in_ip :string</text>
<text text-anchor="start" x="341.228" y="-460.3" font-family="Times,serif" font-size="14.00">last_sign_in_ip :string</text>
</g>
<!-- Doctor&#45;&gt;Patient -->
<g id="edge8" class="edge"><title>Doctor&#45;&gt;Patient</title>
<path fill="none" stroke="#79377e" d="M455.672,-720.442C454.902,-714.869 454.129,-709.278 453.359,-703.705"/>
<polygon fill="#79377e" stroke="#79377e" points="455.69,-720.575 452.601,-731.096 456.375,-725.527 457.059,-730.48 457.059,-730.48 457.059,-730.48 456.375,-725.527 461.517,-729.864 455.69,-720.575 455.69,-720.575"/>
<polygon fill="#79377e" stroke="#79377e" points="453.346,-703.607 456.434,-693.085 452.661,-698.654 451.977,-693.701 451.977,-693.701 451.977,-693.701 452.661,-698.654 447.519,-694.317 453.346,-703.607 453.346,-703.607"/>
</g>
<!-- Team -->
<g id="node9" class="node"><title>Team</title>
<path fill="none" stroke="black" d="M514,-309.5C514,-309.5 623.011,-309.5 623.011,-309.5 629.011,-309.5 635.011,-315.5 635.011,-321.5 635.011,-321.5 635.011,-397.5 635.011,-397.5 635.011,-403.5 629.011,-409.5 623.011,-409.5 623.011,-409.5 514,-409.5 514,-409.5 508,-409.5 502,-403.5 502,-397.5 502,-397.5 502,-321.5 502,-321.5 502,-315.5 508,-309.5 514,-309.5"/>
<text text-anchor="middle" x="568.505" y="-394.3" font-family="Times,serif" font-size="14.00">Team</text>
<polyline fill="none" stroke="black" points="502,-387.5 635.011,-387.5 "/>
<text text-anchor="start" x="510" y="-372.3" font-family="Times,serif" font-size="14.00">id :integer</text>
<text text-anchor="start" x="510" y="-358.3" font-family="Times,serif" font-size="14.00">name :string</text>
<text text-anchor="start" x="510" y="-344.3" font-family="Times,serif" font-size="14.00">description :text</text>
<text text-anchor="start" x="510" y="-330.3" font-family="Times,serif" font-size="14.00">created_at :datetime</text>
<text text-anchor="start" x="510" y="-316.3" font-family="Times,serif" font-size="14.00">updated_at :datetime</text>
</g>
<!-- Doctor&#45;&gt;Team -->
<g id="edge7" class="edge"><title>Doctor&#45;&gt;Team</title>
<path fill="none" stroke="#cb8dc8" d="M538.363,-720.578C541.472,-711.711 544.236,-702.801 546.505,-694 570.659,-600.341 572.686,-487.253 571.16,-419.748"/>
<polygon fill="#cb8dc8" stroke="#cb8dc8" points="538.289,-720.782 530.635,-728.634 536.576,-725.479 534.863,-730.176 534.863,-730.176 534.863,-730.176 536.576,-725.479 539.09,-731.718 538.289,-720.782 538.289,-720.782"/>
<polygon fill="#cb8dc8" stroke="#cb8dc8" points="571.159,-419.718 575.398,-409.604 571.029,-414.72 570.899,-409.721 570.899,-409.721 570.899,-409.721 571.029,-414.72 566.401,-409.838 571.159,-419.718 571.159,-419.718"/>
</g>
<!-- Image -->
<g id="node5" class="node"><title>Image</title>
<path fill="none" stroke="black" d="M703.555,-786.5C703.555,-786.5 837.456,-786.5 837.456,-786.5 843.456,-786.5 849.456,-792.5 849.456,-798.5 849.456,-798.5 849.456,-902.5 849.456,-902.5 849.456,-908.5 843.456,-914.5 837.456,-914.5 837.456,-914.5 703.555,-914.5 703.555,-914.5 697.555,-914.5 691.555,-908.5 691.555,-902.5 691.555,-902.5 691.555,-798.5 691.555,-798.5 691.555,-792.5 697.555,-786.5 703.555,-786.5"/>
<text text-anchor="middle" x="770.505" y="-899.3" font-family="Times,serif" font-size="14.00">Image</text>
<polyline fill="none" stroke="black" points="691.555,-892.5 849.456,-892.5 "/>
<text text-anchor="start" x="699.555" y="-877.3" font-family="Times,serif" font-size="14.00">id :integer</text>
<text text-anchor="start" x="699.555" y="-863.3" font-family="Times,serif" font-size="14.00">created_at :datetime</text>
<text text-anchor="start" x="699.555" y="-849.3" font-family="Times,serif" font-size="14.00">updated_at :datetime</text>
<text text-anchor="start" x="699.555" y="-835.3" font-family="Times,serif" font-size="14.00">file_file_name :string</text>
<text text-anchor="start" x="699.555" y="-821.3" font-family="Times,serif" font-size="14.00">file_content_type :string</text>
<text text-anchor="start" x="699.555" y="-807.3" font-family="Times,serif" font-size="14.00">file_file_size :integer</text>
<text text-anchor="start" x="699.555" y="-793.3" font-family="Times,serif" font-size="14.00">file_updated_at :datetime</text>
</g>
<!-- Pathway -->
<g id="node6" class="node"><title>Pathway</title>
<path fill="none" stroke="black" d="M286,-309.5C286,-309.5 395.011,-309.5 395.011,-309.5 401.011,-309.5 407.011,-315.5 407.011,-321.5 407.011,-321.5 407.011,-397.5 407.011,-397.5 407.011,-403.5 401.011,-409.5 395.011,-409.5 395.011,-409.5 286,-409.5 286,-409.5 280,-409.5 274,-403.5 274,-397.5 274,-397.5 274,-321.5 274,-321.5 274,-315.5 280,-309.5 286,-309.5"/>
<text text-anchor="middle" x="340.505" y="-394.3" font-family="Times,serif" font-size="14.00">Pathway</text>
<polyline fill="none" stroke="black" points="274,-387.5 407.011,-387.5 "/>
<text text-anchor="start" x="282" y="-372.3" font-family="Times,serif" font-size="14.00">id :integer</text>
<text text-anchor="start" x="282" y="-358.3" font-family="Times,serif" font-size="14.00">patient_id :integer</text>
<text text-anchor="start" x="282" y="-344.3" font-family="Times,serif" font-size="14.00">disease :string</text>
<text text-anchor="start" x="282" y="-330.3" font-family="Times,serif" font-size="14.00">created_at :datetime</text>
<text text-anchor="start" x="282" y="-316.3" font-family="Times,serif" font-size="14.00">updated_at :datetime</text>
</g>
<!-- Pathway&#45;&gt;TreatmentState -->
<g id="edge11" class="edge"><title>Pathway&#45;&gt;TreatmentState</title>
<path fill="none" stroke="#cfe58a" d="M306.237,-302.227C300.688,-293.115 294.877,-283.574 289.142,-274.156"/>
<ellipse fill="none" stroke="#cfe58a" cx="308.366" cy="-305.724" rx="4.00002" ry="4.00002"/>
<polygon fill="#cfe58a" stroke="#cfe58a" points="289.107,-274.099 287.749,-263.217 286.507,-269.828 283.906,-265.558 283.906,-265.558 283.906,-265.558 286.507,-269.828 280.062,-267.898 289.107,-274.099 289.107,-274.099"/>
</g>
<!-- Patient&#45;&gt;Pathway -->
<g id="edge13" class="edge"><title>Patient&#45;&gt;Pathway</title>
<path fill="none" stroke="#b0663c" d="M378.776,-445.904C374.293,-435.899 369.924,-426.149 365.837,-417.029"/>
<ellipse fill="none" stroke="#b0663c" cx="380.538" cy="-449.836" rx="4.00002" ry="4.00002"/>
<ellipse fill="#b0663c" stroke="#b0663c" cx="364.109" cy="-413.174" rx="4.00002" ry="4.00002"/>
</g>
<!-- Patient&#45;&gt;Team -->
<g id="edge14" class="edge"><title>Patient&#45;&gt;Team</title>
<path fill="none" stroke="#e4ef87" d="M515.602,-444.828C521.386,-435.607 527.028,-426.615 532.34,-418.147"/>
<polygon fill="#e4ef87" stroke="#e4ef87" points="515.484,-445.015 506.358,-451.095 512.827,-449.251 510.17,-453.486 510.17,-453.486 510.17,-453.486 512.827,-449.251 513.982,-455.878 515.484,-445.015 515.484,-445.015"/>
<polygon fill="#e4ef87" stroke="#e4ef87" points="532.435,-417.995 541.562,-411.916 535.093,-413.76 537.75,-409.524 537.75,-409.524 537.75,-409.524 535.093,-413.76 533.938,-407.133 532.435,-417.995 532.435,-417.995"/>
</g>
<!-- Patient&#45;&gt;TreatmentModule -->
<g id="edge16" class="edge"><title>Patient&#45;&gt;TreatmentModule</title>
<path fill="none" stroke="#9537ea" d="M445.348,-443.229C445.808,-434.356 446.203,-425.548 446.505,-417 448.31,-365.921 455.008,-352.399 446.505,-302 435.029,-233.977 407.181,-159.763 386.059,-109.91"/>
<polygon fill="#9537ea" stroke="#9537ea" points="445.345,-443.279 440.308,-453.019 445.073,-448.271 444.801,-453.264 444.801,-453.264 444.801,-453.264 445.073,-448.271 449.295,-453.509 445.345,-443.279 445.345,-443.279"/>
<polygon fill="#9537ea" stroke="#9537ea" points="386.001,-109.775 386.201,-98.8113 384.033,-105.179 382.065,-100.583 382.065,-100.583 382.065,-100.583 384.033,-105.179 377.928,-102.354 386.001,-109.775 386.001,-109.775"/>
</g>
<!-- Patient&#45;&gt;TreatmentState -->
<g id="edge15" class="edge"><title>Patient&#45;&gt;TreatmentState</title>
<path fill="none" stroke="#eaa5b7" d="M450.736,-443.423C450.354,-395.858 442.352,-343.506 416.505,-302 394.921,-267.34 356.51,-243.414 321.553,-227.727"/>
<polygon fill="#eaa5b7" stroke="#eaa5b7" points="450.736,-443.495 446.205,-453.481 450.721,-448.495 450.705,-453.495 450.705,-453.495 450.705,-453.495 450.721,-448.495 455.205,-453.508 450.736,-443.495 450.736,-443.495"/>
<polygon fill="#eaa5b7" stroke="#eaa5b7" points="321.458,-227.686 314.065,-219.587 316.868,-225.702 312.279,-223.717 312.279,-223.717 312.279,-223.717 316.868,-225.702 310.493,-227.848 321.458,-227.686 321.458,-227.686"/>
</g>
<!-- Subcategory&#45;&gt;DataModule -->
<g id="edge18" class="edge"><title>Subcategory&#45;&gt;DataModule</title>
<path fill="none" stroke="#5203f5" d="M80.8481,-108.685C93.9182,-160.795 113.221,-237.756 126.943,-292.466"/>
<ellipse fill="none" stroke="#5203f5" cx="79.8593" cy="-104.742" rx="4.00001" ry="4.00001"/>
<polygon fill="#5203f5" stroke="#5203f5" points="126.95,-292.492 125.018,-303.286 128.166,-297.342 129.382,-302.191 129.382,-302.191 129.382,-302.191 128.166,-297.342 133.747,-301.097 126.95,-292.492 126.95,-292.492"/>
</g>
<!-- TreatmentState&#45;&gt;DataModule -->
<g id="edge23" class="edge"><title>TreatmentState&#45;&gt;DataModule</title>
<path fill="none" stroke="#0c4816" d="M205.246,-274.368C201.063,-280.825 196.782,-287.339 192.517,-293.731"/>
<polygon fill="#0c4816" stroke="#0c4816" points="205.468,-274.024 214.663,-268.049 208.173,-269.819 210.878,-265.614 210.878,-265.614 210.878,-265.614 208.173,-269.819 207.094,-263.179 205.468,-274.024 205.468,-274.024"/>
<polygon fill="#0c4816" stroke="#0c4816" points="192.418,-293.879 183.107,-299.671 189.63,-298.03 186.842,-302.18 186.842,-302.18 186.842,-302.18 189.63,-298.03 190.578,-304.689 192.418,-293.879 192.418,-293.879"/>
</g>
<!-- TreatmentState&#45;&gt;Subcategory -->
<g id="edge24" class="edge"><title>TreatmentState&#45;&gt;Subcategory</title>
<path fill="none" stroke="#d53b51" d="M170.989,-138.472C158.555,-128.122 145.723,-117.441 133.492,-107.26"/>
<polygon fill="#d53b51" stroke="#d53b51" points="171.167,-138.62 175.973,-148.476 175.01,-141.819 178.852,-145.018 178.852,-145.018 178.852,-145.018 175.01,-141.819 181.731,-141.559 171.167,-138.62 171.167,-138.62"/>
<polygon fill="#d53b51" stroke="#d53b51" points="133.236,-107.047 128.43,-97.1909 129.394,-103.848 125.551,-100.649 125.551,-100.649 125.551,-100.649 129.394,-103.848 122.672,-104.108 133.236,-107.047 133.236,-107.047"/>
</g>
<!-- TreatmentState&#45;&gt;TreatmentModule -->
<g id="edge22" class="edge"><title>TreatmentState&#45;&gt;TreatmentModule</title>
<path fill="none" stroke="#3c58b3" d="M298.914,-130.694C304.472,-123.43 310.075,-116.106 315.512,-109"/>
<ellipse fill="none" stroke="#3c58b3" cx="296.282" cy="-134.134" rx="4.00002" ry="4.00002"/>
<polygon fill="#3c58b3" stroke="#3c58b3" points="315.728,-108.717 325.379,-103.51 318.766,-104.746 321.805,-100.775 321.805,-100.775 321.805,-100.775 318.766,-104.746 318.231,-98.041 315.728,-108.717 315.728,-108.717"/>
</g>
<!-- ActiveRecord::Base -->
<g id="node12" class="node"><title>ActiveRecord::Base</title>
<ellipse fill="none" stroke="black" cx="324.505" cy="-1043.5" rx="81.1422" ry="18"/>
<text text-anchor="middle" x="324.505" y="-1039.3" font-family="Times,serif" font-size="14.00">ActiveRecord::Base</text>
</g>
<!-- ActiveRecord::Base&#45;&gt;Category -->
<g id="edge3" class="edge"><title>ActiveRecord::Base&#45;&gt;Category</title>
<path fill="none" stroke="black" d="M288.895,-1027.2C254.518,-1011.73 205.9,-987.775 193.505,-971 115.847,-865.897 108.276,-704.212 109.943,-623.649"/>
</g>
<!-- ActiveRecord::Base&#45;&gt;DataModule -->
<g id="edge6" class="edge"><title>ActiveRecord::Base&#45;&gt;DataModule</title>
<path fill="none" stroke="black" d="M292.475,-1026.92C271.308,-1014.8 245.055,-995.856 231.505,-971 120.936,-768.165 249.634,-675.78 188.505,-453 185.197,-440.945 180.334,-428.566 175.013,-416.942"/>
</g>
<!-- ActiveRecord::Base&#45;&gt;Doctor -->
<g id="edge9" class="edge"><title>ActiveRecord::Base&#45;&gt;Doctor</title>
<path fill="none" stroke="black" d="M337.728,-1025.55C348.127,-1012.22 363.635,-992.34 380.494,-970.729"/>
</g>
<!-- ActiveRecord::Base&#45;&gt;Image -->
<g id="edge10" class="edge"><title>ActiveRecord::Base&#45;&gt;Image</title>
<path fill="none" stroke="black" d="M405.693,-1041.83C481.278,-1037.73 594.451,-1022.45 677.505,-971 699.965,-957.086 719.123,-935.679 734.111,-914.808"/>
</g>
<!-- ActiveRecord::Base&#45;&gt;Pathway -->
<g id="edge12" class="edge"><title>ActiveRecord::Base&#45;&gt;Pathway</title>
<path fill="none" stroke="black" d="M323.398,-1025.09C319.104,-953.937 304.752,-678.315 324.505,-453 325.744,-438.875 327.988,-423.668 330.412,-409.745"/>
</g>
<!-- ActiveRecord::Base&#45;&gt;Patient -->
<g id="edge17" class="edge"><title>ActiveRecord::Base&#45;&gt;Patient</title>
<path fill="none" stroke="black" d="M324.699,-1025.18C325.64,-977.269 331.094,-839.253 362.505,-730 365.966,-717.962 370.257,-705.688 375.011,-693.58"/>
</g>
<!-- ActiveRecord::Base&#45;&gt;Subcategory -->
<g id="edge19" class="edge"><title>ActiveRecord::Base&#45;&gt;Subcategory</title>
<path fill="none" stroke="black" d="M288.004,-1027.23C271.752,-1020.66 252.301,-1013.1 234.505,-1007 180.623,-988.531 151.402,-1011.65 111.505,-971 -16.4228,-840.644 3.50537,-757.142 3.50537,-574.5 3.50537,-574.5 3.50537,-574.5 3.50537,-358.5 3.50537,-265.868 31.3688,-160.665 50.0352,-100.58"/>
</g>
<!-- ActiveRecord::Base&#45;&gt;Team -->
<g id="edge20" class="edge"><title>ActiveRecord::Base&#45;&gt;Team</title>
<path fill="none" stroke="black" d="M391.777,-1033.31C460.771,-1022.35 561.201,-1001.58 584.505,-971 650.942,-883.826 599.632,-539.263 577.431,-409.913"/>
</g>
<!-- ActiveRecord::Base&#45;&gt;TreatmentModule -->
<g id="edge21" class="edge"><title>ActiveRecord::Base&#45;&gt;TreatmentModule</title>
<path fill="none" stroke="black" d="M394.863,-1034.32C471.108,-1023.94 585.76,-1003.38 614.505,-971 673.447,-904.607 663.505,-663.281 663.505,-574.5 663.505,-574.5 663.505,-574.5 663.505,-358.5 663.505,-232.486 532.583,-139.652 442.575,-90.7182"/>
</g>
<!-- ActiveRecord::Base&#45;&gt;TreatmentState -->
<g id="edge25" class="edge"><title>ActiveRecord::Base&#45;&gt;TreatmentState</title>
<path fill="none" stroke="black" d="M320.58,-1025.25C317.429,-1010.82 313.114,-989.665 310.505,-971 274.085,-710.426 255.279,-397.092 248.505,-265.517"/>
</g>
</g>
</svg>
