<?xml version="1.0" encoding="UTF-8" standalone="no"?>
<!DOCTYPE svg PUBLIC "-//W3C//DTD SVG 1.1//EN"
 "http://www.w3.org/Graphics/SVG/1.1/DTD/svg11.dtd">
<!-- Generated by graphviz version 2.38.0 (20140413.2041)
 -->
<!-- Title: models_diagram Pages: 1 -->
<svg width="614pt" height="297pt"
 viewBox="0.00 0.00 614.00 297.00" xmlns="http://www.w3.org/2000/svg" xmlns:xlink="http://www.w3.org/1999/xlink">
<g id="graph0" class="graph" transform="scale(1 1) rotate(0) translate(4 293)">
<title>models_diagram</title>
<polygon fill="white" stroke="none" points="-4,4 -4,-293 609.999,-293 609.999,4 -4,4"/>
<!-- _diagram_info -->
<g id="node1" class="node"><title>_diagram_info</title>
<text text-anchor="start" x="8" y="-274.6" font-family="Times,serif" font-size="13.00">Models diagram</text>
<text text-anchor="start" x="8" y="-261.6" font-family="Times,serif" font-size="13.00">Date: Mar 12 2015 &#45; 14:35</text>
<text text-anchor="start" x="8" y="-248.6" font-family="Times,serif" font-size="13.00">Migration version: 20150217143140</text>
<text text-anchor="start" x="8" y="-235.6" font-family="Times,serif" font-size="13.00">Generated by RailRoady 1.3.0</text>
<text text-anchor="start" x="8" y="-222.6" font-family="Times,serif" font-size="13.00">http://railroady.prestonlee.com</text>
</g>
<!-- Category -->
<g id="node2" class="node"><title>Category</title>
<ellipse fill="none" stroke="black" cx="544.688" cy="-252.5" rx="42.5456" ry="18"/>
<text text-anchor="middle" x="544.688" y="-248.3" font-family="Times,serif" font-size="14.00">Category</text>
</g>
<!-- DataModule -->
<g id="node3" class="node"><title>DataModule</title>
<ellipse fill="none" stroke="black" cx="503.688" cy="-162" rx="54.123" ry="18"/>
<text text-anchor="middle" x="503.688" y="-157.8" font-family="Times,serif" font-size="14.00">DataModule</text>
</g>
<!-- Category&#45;&gt;DataModule -->
<g id="edge2" class="edge"><title>Category&#45;&gt;DataModule</title>
<path fill="none" stroke="#9e7ae5" d="M532.576,-225.355C527.326,-214.024 521.189,-200.778 515.925,-189.416"/>
<polygon fill="#9e7ae5" stroke="#9e7ae5" points="532.579,-225.363 532.699,-236.328 534.681,-229.9 536.783,-234.436 536.783,-234.436 536.783,-234.436 534.681,-229.9 540.866,-232.545 532.579,-225.363 532.579,-225.363"/>
<polygon fill="#9e7ae5" stroke="#9e7ae5" points="515.772,-189.085 515.652,-178.12 513.671,-184.548 511.569,-180.011 511.569,-180.011 511.569,-180.011 513.671,-184.548 507.486,-181.903 515.772,-189.085 515.772,-189.085"/>
</g>
<!-- Subcategory -->
<g id="node7" class="node"><title>Subcategory</title>
<ellipse fill="none" stroke="black" cx="551.688" cy="-18" rx="54.123" ry="18"/>
<text text-anchor="middle" x="551.688" y="-13.8" font-family="Times,serif" font-size="14.00">Subcategory</text>
</g>
<!-- Category&#45;&gt;Subcategory -->
<g id="edge1" class="edge"><title>Category&#45;&gt;Subcategory</title>
<path fill="none" stroke="#fdf440" d="M554.229,-226.959C559.01,-213.353 564.282,-195.997 566.688,-180 573.738,-133.111 564.955,-78.0088 558.163,-45.9432"/>
<ellipse fill="none" stroke="#fdf440" cx="552.86" cy="-230.737" rx="4.00001" ry="4.00001"/>
<polygon fill="#fdf440" stroke="#fdf440" points="558.123,-45.7608 560.355,-35.0246 557.042,-40.879 555.962,-35.9971 555.962,-35.9971 555.962,-35.9971 557.042,-40.879 551.568,-36.9696 558.123,-45.7608 558.123,-45.7608"/>
</g>
<!-- TreatmentModule -->
<g id="node9" class="node"><title>TreatmentModule</title>
<ellipse fill="none" stroke="black" cx="405.688" cy="-18" rx="73.7956" ry="18"/>
<text text-anchor="middle" x="405.688" y="-13.8" font-family="Times,serif" font-size="14.00">TreatmentModule</text>
</g>
<!-- DataModule&#45;&gt;TreatmentModule -->
<g id="edge3" class="edge"><title>DataModule&#45;&gt;TreatmentModule</title>
<path fill="none" stroke="#89c744" d="M503.646,-135.594C502.475,-116.619 498.363,-90.8235 485.688,-72 476.528,-58.3965 462.584,-47.4183 448.889,-39.0577"/>
<ellipse fill="none" stroke="#89c744" cx="503.826" cy="-139.786" rx="4" ry="4"/>
<polygon fill="#89c744" stroke="#89c744" points="448.65,-38.9206 442.22,-30.0381 444.314,-36.4305 439.978,-33.9404 439.978,-33.9404 439.978,-33.9404 444.314,-36.4305 437.737,-37.8427 448.65,-38.9206 448.65,-38.9206"/>
</g>
<!-- TreatmentState -->
<g id="node10" class="node"><title>TreatmentState</title>
<ellipse fill="none" stroke="black" cx="412.688" cy="-90" rx="63.6398" ry="18"/>
<text text-anchor="middle" x="412.688" y="-85.8" font-family="Times,serif" font-size="14.00">TreatmentState</text>
</g>
<!-- DataModule&#45;&gt;TreatmentState -->
<g id="edge4" class="edge"><title>DataModule&#45;&gt;TreatmentState</title>
<path fill="none" stroke="#561108" d="M471.699,-141.128C460.029,-132.694 447.102,-122.81 436.274,-114.057"/>
<ellipse fill="none" stroke="#561108" cx="475.007" cy="-143.488" rx="4.00002" ry="4.00002"/>
<polygon fill="#561108" stroke="#561108" points="436.182,-113.981 431.319,-104.153 432.321,-110.805 428.46,-107.628 428.46,-107.628 428.46,-107.628 432.321,-110.805 425.601,-111.103 436.182,-113.981 436.182,-113.981"/>
</g>
<!-- Doctor -->
<g id="node4" class="node"><title>Doctor</title>
<ellipse fill="none" stroke="black" cx="259.688" cy="-162" rx="34.8285" ry="18"/>
<text text-anchor="middle" x="259.688" y="-157.8" font-family="Times,serif" font-size="14.00">Doctor</text>
</g>
<!-- Team -->
<g id="node8" class="node"><title>Team</title>
<ellipse fill="none" stroke="black" cx="238.688" cy="-90" rx="29.7411" ry="18"/>
<text text-anchor="middle" x="238.688" y="-85.8" font-family="Times,serif" font-size="14.00">Team</text>
</g>
<!-- Doctor&#45;&gt;Team -->
<g id="edge5" class="edge"><title>Doctor&#45;&gt;Team</title>
<path fill="none" stroke="#898df1" d="M251.716,-134.426C250.081,-128.977 248.359,-123.239 246.723,-117.783"/>
<polygon fill="#898df1" stroke="#898df1" points="251.731,-134.477 250.294,-145.348 253.167,-139.266 254.604,-144.055 254.604,-144.055 254.604,-144.055 253.167,-139.266 258.914,-142.762 251.731,-134.477 251.731,-134.477"/>
<polygon fill="#898df1" stroke="#898df1" points="246.598,-117.367 248.035,-106.496 245.161,-112.578 243.724,-107.789 243.724,-107.789 243.724,-107.789 245.161,-112.578 239.414,-109.082 246.598,-117.367 246.598,-117.367"/>
</g>
<!-- Pathway -->
<g id="node5" class="node"><title>Pathway</title>
<ellipse fill="none" stroke="black" cx="352.688" cy="-162" rx="40.6248" ry="18"/>
<text text-anchor="middle" x="352.688" y="-157.8" font-family="Times,serif" font-size="14.00">Pathway</text>
</g>
<!-- Pathway&#45;&gt;TreatmentState -->
<g id="edge6" class="edge"><title>Pathway&#45;&gt;TreatmentState</title>
<path fill="none" stroke="#c60f08" d="M372.018,-138.448C378.324,-131.091 385.354,-122.89 391.771,-115.403"/>
<ellipse fill="none" stroke="#c60f08" cx="369.207" cy="-141.728" rx="4.00002" ry="4.00002"/>
<polygon fill="#c60f08" stroke="#c60f08" points="391.923,-115.226 401.847,-110.562 395.177,-111.43 398.431,-107.633 398.431,-107.633 398.431,-107.633 395.177,-111.43 395.014,-104.705 391.923,-115.226 391.923,-115.226"/>
</g>
<!-- Patient -->
<g id="node6" class="node"><title>Patient</title>
<ellipse fill="none" stroke="black" cx="259.688" cy="-252.5" rx="34.8371" ry="18"/>
<text text-anchor="middle" x="259.688" y="-248.3" font-family="Times,serif" font-size="14.00">Patient</text>
</g>
<!-- Patient&#45;&gt;Doctor -->
<g id="edge9" class="edge"><title>Patient&#45;&gt;Doctor</title>
<path fill="none" stroke="#a3bb52" d="M259.688,-224.092C259.688,-213.289 259.688,-200.912 259.688,-190.136"/>
<polygon fill="#a3bb52" stroke="#a3bb52" points="259.688,-224.436 255.188,-234.436 259.688,-229.436 259.688,-234.436 259.688,-234.436 259.688,-234.436 259.688,-229.436 264.188,-234.436 259.688,-224.436 259.688,-224.436"/>
<polygon fill="#a3bb52" stroke="#a3bb52" points="259.688,-190.011 264.188,-180.011 259.688,-185.011 259.688,-180.011 259.688,-180.011 259.688,-180.011 259.688,-185.011 255.188,-180.011 259.688,-190.011 259.688,-190.011"/>
</g>
<!-- Patient&#45;&gt;Pathway -->
<g id="edge7" class="edge"><title>Patient&#45;&gt;Pathway</title>
<path fill="none" stroke="#fc6040" d="M281.771,-230.485C296.44,-216.526 315.634,-198.261 330.354,-184.253"/>
<ellipse fill="none" stroke="#fc6040" cx="278.785" cy="-233.327" rx="4.00002" ry="4.00002"/>
<ellipse fill="#fc6040" stroke="#fc6040" cx="333.464" cy="-181.293" rx="4.00002" ry="4.00002"/>
</g>
<!-- Patient&#45;&gt;Team -->
<g id="edge8" class="edge"><title>Patient&#45;&gt;Team</title>
<path fill="none" stroke="#db8209" d="M240.364,-227.639C230.926,-214.443 220.572,-197.257 215.688,-180 209.637,-158.622 216.969,-134.174 224.918,-116.318"/>
<polygon fill="#db8209" stroke="#db8209" points="240.392,-227.677 242.758,-238.385 243.379,-231.687 246.366,-235.696 246.366,-235.696 246.366,-235.696 243.379,-231.687 249.975,-233.007 240.392,-227.677 240.392,-227.677"/>
<polygon fill="#db8209" stroke="#db8209" points="224.996,-116.156 233.375,-109.082 227.156,-111.647 229.317,-107.138 229.317,-107.138 229.317,-107.138 227.156,-111.647 225.258,-105.194 224.996,-116.156 224.996,-116.156"/>
</g>
<!-- Patient&#45;&gt;TreatmentModule -->
<g id="edge11" class="edge"><title>Patient&#45;&gt;TreatmentModule</title>
<path fill="none" stroke="#ef32df" d="M238.993,-227.813C209.491,-191.064 162.784,-119.6 199.688,-72 216.002,-50.9568 279.303,-36.8035 331.478,-28.4552"/>
<polygon fill="#ef32df" stroke="#ef32df" points="239.343,-228.236 242.234,-238.814 242.524,-232.094 245.705,-235.951 245.705,-235.951 245.705,-235.951 242.524,-232.094 249.177,-233.088 239.343,-228.236 239.343,-228.236"/>
<polygon fill="#ef32df" stroke="#ef32df" points="331.53,-28.4472 342.102,-31.3598 336.471,-27.6801 341.412,-26.9131 341.412,-26.9131 341.412,-26.9131 336.471,-27.6801 340.721,-22.4664 331.53,-28.4472 331.53,-28.4472"/>
</g>
<!-- Patient&#45;&gt;TreatmentState -->
<g id="edge10" class="edge"><title>Patient&#45;&gt;TreatmentState</title>
<path fill="none" stroke="#81dc95" d="M301.289,-242.256C334.407,-232.588 378.999,-213.928 402.688,-180 415.172,-162.119 416.978,-137.117 416.06,-118.164"/>
<polygon fill="#81dc95" stroke="#81dc95" points="301.057,-242.32 290.221,-240.637 296.236,-243.648 291.416,-244.975 291.416,-244.975 291.416,-244.975 296.236,-243.648 292.611,-249.314 301.057,-242.32 301.057,-242.32"/>
<polygon fill="#81dc95" stroke="#81dc95" points="416.051,-118.043 419.779,-107.73 415.671,-113.057 415.292,-108.072 415.292,-108.072 415.292,-108.072 415.671,-113.057 410.805,-108.413 416.051,-118.043 416.051,-118.043"/>
</g>
<!-- Subcategory&#45;&gt;DataModule -->
<g id="edge12" class="edge"><title>Subcategory&#45;&gt;DataModule</title>
<path fill="none" stroke="#5e0add" d="M543.281,-43.8706C534.746,-69.1188 521.573,-108.09 512.795,-134.059"/>
<ellipse fill="none" stroke="#5e0add" cx="544.596" cy="-39.9786" rx="4.00001" ry="4.00001"/>
<polygon fill="#5e0add" stroke="#5e0add" points="512.68,-134.398 505.215,-142.43 511.079,-139.135 509.478,-143.871 509.478,-143.871 509.478,-143.871 511.079,-139.135 513.741,-145.313 512.68,-134.398 512.68,-134.398"/>
</g>
<!-- TreatmentState&#45;&gt;DataModule -->
<g id="edge14" class="edge"><title>TreatmentState&#45;&gt;DataModule</title>
<path fill="none" stroke="#2fa2e7" d="M446.813,-112.422C457.891,-120.489 469.897,-129.695 480.058,-137.908"/>
<polygon fill="#2fa2e7" stroke="#2fa2e7" points="446.696,-112.338 441.191,-102.854 442.632,-109.424 438.569,-106.511 438.569,-106.511 438.569,-106.511 442.632,-109.424 435.947,-110.168 446.696,-112.338 446.696,-112.338"/>
<polygon fill="#2fa2e7" stroke="#2fa2e7" points="480.24,-138.057 485.103,-147.886 484.101,-141.234 487.962,-144.411 487.962,-144.411 487.962,-144.411 484.101,-141.234 490.821,-140.936 480.24,-138.057 480.24,-138.057"/>
</g>
<!-- TreatmentState&#45;&gt;Subcategory -->
<g id="edge15" class="edge"><title>TreatmentState&#45;&gt;Subcategory</title>
<path fill="none" stroke="#31a494" d="M451.519,-69.4448C470.968,-59.65 494.426,-47.8366 513.751,-38.1049"/>
<polygon fill="#31a494" stroke="#31a494" points="451.438,-69.4854 440.483,-69.9641 446.972,-71.7343 442.507,-73.9832 442.507,-73.9832 442.507,-73.9832 446.972,-71.7343 444.531,-78.0024 451.438,-69.4854 451.438,-69.4854"/>
<polygon fill="#31a494" stroke="#31a494" points="513.938,-38.0105 524.894,-37.5318 518.404,-35.7616 522.87,-33.5127 522.87,-33.5127 522.87,-33.5127 518.404,-35.7616 520.846,-29.4935 513.938,-38.0105 513.938,-38.0105"/>
</g>
<!-- TreatmentState&#45;&gt;TreatmentModule -->
<g id="edge13" class="edge"><title>TreatmentState&#45;&gt;TreatmentModule</title>
<path fill="none" stroke="#57c2c8" d="M410.152,-63.6398C409.594,-58.0629 409.001,-52.1319 408.435,-46.4761"/>
<ellipse fill="none" stroke="#57c2c8" cx="410.559" cy="-67.7165" rx="4" ry="4"/>
<polygon fill="#57c2c8" stroke="#57c2c8" points="408.393,-46.0547 411.876,-35.6565 407.896,-41.0795 407.398,-36.1043 407.398,-36.1043 407.398,-36.1043 407.896,-41.0795 402.921,-36.5521 408.393,-46.0547 408.393,-46.0547"/>
</g>
</g>
</svg>
