<?xml version="1.0" encoding="UTF-8" standalone="no"?>
<!DOCTYPE svg PUBLIC "-//W3C//DTD SVG 1.1//EN"
 "http://www.w3.org/Graphics/SVG/1.1/DTD/svg11.dtd">
<!-- Generated by graphviz version 2.38.0 (20140413.2041)
 -->
<!-- Title: models_diagram Pages: 1 -->
<svg width="844pt" height="814pt"
 viewBox="0.00 0.00 844.19 814.00" xmlns="http://www.w3.org/2000/svg" xmlns:xlink="http://www.w3.org/1999/xlink">
<g id="graph0" class="graph" transform="scale(1 1) rotate(0) translate(4 810)">
<title>models_diagram</title>
<polygon fill="white" stroke="none" points="-4,4 -4,-810 840.193,-810 840.193,4 -4,4"/>
<!-- _diagram_info -->
<g id="node1" class="node"><title>_diagram_info</title>
<text text-anchor="start" x="8" y="-707.6" font-family="Times,serif" font-size="13.00">Models diagram</text>
<text text-anchor="start" x="8" y="-694.6" font-family="Times,serif" font-size="13.00">Date: Mar 12 2015 &#45; 14:35</text>
<text text-anchor="start" x="8" y="-681.6" font-family="Times,serif" font-size="13.00">Migration version: 20150217143140</text>
<text text-anchor="start" x="8" y="-668.6" font-family="Times,serif" font-size="13.00">Generated by RailRoady 1.3.0</text>
<text text-anchor="start" x="8" y="-655.6" font-family="Times,serif" font-size="13.00">http://railroady.prestonlee.com</text>
</g>
<!-- Category -->
<g id="node2" class="node"><title>Category</title>
<path fill="none" stroke="black" d="M708.182,-635.5C708.182,-635.5 817.193,-635.5 817.193,-635.5 823.193,-635.5 829.193,-641.5 829.193,-647.5 829.193,-647.5 829.193,-723.5 829.193,-723.5 829.193,-729.5 823.193,-735.5 817.193,-735.5 817.193,-735.5 708.182,-735.5 708.182,-735.5 702.182,-735.5 696.182,-729.5 696.182,-723.5 696.182,-723.5 696.182,-647.5 696.182,-647.5 696.182,-641.5 702.182,-635.5 708.182,-635.5"/>
<text text-anchor="middle" x="762.688" y="-720.3" font-family="Times,serif" font-size="14.00">Category</text>
<polyline fill="none" stroke="black" points="696.182,-713.5 829.193,-713.5 "/>
<text text-anchor="start" x="704.182" y="-698.3" font-family="Times,serif" font-size="14.00">id :integer</text>
<text text-anchor="start" x="704.182" y="-684.3" font-family="Times,serif" font-size="14.00">name :string</text>
<text text-anchor="start" x="704.182" y="-670.3" font-family="Times,serif" font-size="14.00">icon :string</text>
<text text-anchor="start" x="704.182" y="-656.3" font-family="Times,serif" font-size="14.00">created_at :datetime</text>
<text text-anchor="start" x="704.182" y="-642.3" font-family="Times,serif" font-size="14.00">updated_at :datetime</text>
</g>
<!-- DataModule -->
<g id="node3" class="node"><title>DataModule</title>
<path fill="none" stroke="black" d="M649.793,-358.5C649.793,-358.5 773.583,-358.5 773.583,-358.5 779.583,-358.5 785.583,-364.5 785.583,-370.5 785.583,-370.5 785.583,-460.5 785.583,-460.5 785.583,-466.5 779.583,-472.5 773.583,-472.5 773.583,-472.5 649.793,-472.5 649.793,-472.5 643.793,-472.5 637.793,-466.5 637.793,-460.5 637.793,-460.5 637.793,-370.5 637.793,-370.5 637.793,-364.5 643.793,-358.5 649.793,-358.5"/>
<text text-anchor="middle" x="711.688" y="-457.3" font-family="Times,serif" font-size="14.00">DataModule</text>
<polyline fill="none" stroke="black" points="637.793,-450.5 785.583,-450.5 "/>
<text text-anchor="start" x="645.793" y="-435.3" font-family="Times,serif" font-size="14.00">id :integer</text>
<text text-anchor="start" x="645.793" y="-421.3" font-family="Times,serif" font-size="14.00">data :text</text>
<text text-anchor="start" x="645.793" y="-407.3" font-family="Times,serif" font-size="14.00">subcategory_id :integer</text>
<text text-anchor="start" x="645.793" y="-393.3" font-family="Times,serif" font-size="14.00">created_at :datetime</text>
<text text-anchor="start" x="645.793" y="-379.3" font-family="Times,serif" font-size="14.00">updated_at :datetime</text>
<text text-anchor="start" x="645.793" y="-365.3" font-family="Times,serif" font-size="14.00">title :string</text>
</g>
<!-- Category&#45;&gt;DataModule -->
<g id="edge2" class="edge"><title>Category&#45;&gt;DataModule</title>
<path fill="none" stroke="#4f2207" d="M751.429,-625.334C743.402,-583.155 732.604,-526.414 724.29,-482.723"/>
<polygon fill="#4f2207" stroke="#4f2207" points="751.464,-625.521 748.913,-636.186 752.399,-630.433 753.334,-635.345 753.334,-635.345 753.334,-635.345 752.399,-630.433 757.754,-634.503 751.464,-625.521 751.464,-625.521"/>
<polygon fill="#4f2207" stroke="#4f2207" points="724.264,-482.587 726.815,-471.922 723.329,-477.675 722.395,-472.763 722.395,-472.763 722.395,-472.763 723.329,-477.675 717.974,-473.605 724.264,-482.587 724.264,-482.587"/>
</g>
<!-- Subcategory -->
<g id="node7" class="node"><title>Subcategory</title>
<path fill="none" stroke="black" d="M715.182,-0.5C715.182,-0.5 824.193,-0.5 824.193,-0.5 830.193,-0.5 836.193,-6.5 836.193,-12.5 836.193,-12.5 836.193,-88.5 836.193,-88.5 836.193,-94.5 830.193,-100.5 824.193,-100.5 824.193,-100.5 715.182,-100.5 715.182,-100.5 709.182,-100.5 703.182,-94.5 703.182,-88.5 703.182,-88.5 703.182,-12.5 703.182,-12.5 703.182,-6.5 709.182,-0.5 715.182,-0.5"/>
<text text-anchor="middle" x="769.688" y="-85.3" font-family="Times,serif" font-size="14.00">Subcategory</text>
<polyline fill="none" stroke="black" points="703.182,-78.5 836.193,-78.5 "/>
<text text-anchor="start" x="711.182" y="-63.3" font-family="Times,serif" font-size="14.00">id :integer</text>
<text text-anchor="start" x="711.182" y="-49.3" font-family="Times,serif" font-size="14.00">name :string</text>
<text text-anchor="start" x="711.182" y="-35.3" font-family="Times,serif" font-size="14.00">category_id :integer</text>
<text text-anchor="start" x="711.182" y="-21.3" font-family="Times,serif" font-size="14.00">created_at :datetime</text>
<text text-anchor="start" x="711.182" y="-7.3" font-family="Times,serif" font-size="14.00">updated_at :datetime</text>
</g>
<!-- Category&#45;&gt;Subcategory -->
<g id="edge1" class="edge"><title>Category&#45;&gt;Subcategory</title>
<path fill="none" stroke="#8e8b39" d="M777.392,-627.142C784.128,-597.973 791.344,-561.834 794.688,-529 809.972,-378.904 790.954,-201.258 778.635,-110.831"/>
<ellipse fill="none" stroke="#8e8b39" cx="776.422" cy="-631.281" rx="4.00001" ry="4.00001"/>
<polygon fill="#8e8b39" stroke="#8e8b39" points="778.614,-110.677 781.701,-100.154 777.928,-105.724 777.243,-100.771 777.243,-100.771 777.243,-100.771 777.928,-105.724 772.786,-101.388 778.614,-110.677 778.614,-110.677"/>
</g>
<!-- TreatmentModule -->
<g id="node9" class="node"><title>TreatmentModule</title>
<path fill="none" stroke="black" d="M531.855,-0.5C531.855,-0.5 673.521,-0.5 673.521,-0.5 679.521,-0.5 685.521,-6.5 685.521,-12.5 685.521,-12.5 685.521,-88.5 685.521,-88.5 685.521,-94.5 679.521,-100.5 673.521,-100.5 673.521,-100.5 531.855,-100.5 531.855,-100.5 525.855,-100.5 519.855,-94.5 519.855,-88.5 519.855,-88.5 519.855,-12.5 519.855,-12.5 519.855,-6.5 525.855,-0.5 531.855,-0.5"/>
<text text-anchor="middle" x="602.688" y="-85.3" font-family="Times,serif" font-size="14.00">TreatmentModule</text>
<polyline fill="none" stroke="black" points="519.855,-78.5 685.521,-78.5 "/>
<text text-anchor="start" x="527.855" y="-63.3" font-family="Times,serif" font-size="14.00">id :integer</text>
<text text-anchor="start" x="527.855" y="-49.3" font-family="Times,serif" font-size="14.00">treatment_state_id :integer</text>
<text text-anchor="start" x="527.855" y="-35.3" font-family="Times,serif" font-size="14.00">created_at :datetime</text>
<text text-anchor="start" x="527.855" y="-21.3" font-family="Times,serif" font-size="14.00">updated_at :datetime</text>
<text text-anchor="start" x="527.855" y="-7.3" font-family="Times,serif" font-size="14.00">data_module_id :integer</text>
</g>
<!-- DataModule&#45;&gt;TreatmentModule -->
<g id="edge3" class="edge"><title>DataModule&#45;&gt;TreatmentModule</title>
<path fill="none" stroke="#9cfe5b" d="M718.175,-350.437C721.368,-292.067 719.174,-204.871 687.688,-137 682.987,-126.867 676.552,-117.243 669.31,-108.357"/>
<ellipse fill="none" stroke="#9cfe5b" cx="717.932" cy="-354.484" rx="4" ry="4"/>
<polygon fill="#9cfe5b" stroke="#9cfe5b" points="669.283,-108.324 666.174,-97.8083 666.023,-104.533 662.762,-100.743 662.762,-100.743 662.762,-100.743 666.023,-104.533 659.35,-103.677 669.283,-108.324 669.283,-108.324"/>
</g>
<!-- TreatmentState -->
<g id="node10" class="node"><title>TreatmentState</title>
<path fill="none" stroke="black" d="M557.182,-137.5C557.182,-137.5 666.193,-137.5 666.193,-137.5 672.193,-137.5 678.193,-143.5 678.193,-149.5 678.193,-149.5 678.193,-253.5 678.193,-253.5 678.193,-259.5 672.193,-265.5 666.193,-265.5 666.193,-265.5 557.182,-265.5 557.182,-265.5 551.182,-265.5 545.182,-259.5 545.182,-253.5 545.182,-253.5 545.182,-149.5 545.182,-149.5 545.182,-143.5 551.182,-137.5 557.182,-137.5"/>
<text text-anchor="middle" x="611.688" y="-250.3" font-family="Times,serif" font-size="14.00">TreatmentState</text>
<polyline fill="none" stroke="black" points="545.182,-243.5 678.193,-243.5 "/>
<text text-anchor="start" x="553.182" y="-228.3" font-family="Times,serif" font-size="14.00">id :integer</text>
<text text-anchor="start" x="553.182" y="-214.3" font-family="Times,serif" font-size="14.00">timeframe :string</text>
<text text-anchor="start" x="553.182" y="-200.3" font-family="Times,serif" font-size="14.00">pathway_id :integer</text>
<text text-anchor="start" x="553.182" y="-186.3" font-family="Times,serif" font-size="14.00">created_at :datetime</text>
<text text-anchor="start" x="553.182" y="-172.3" font-family="Times,serif" font-size="14.00">updated_at :datetime</text>
<text text-anchor="start" x="553.182" y="-158.3" font-family="Times,serif" font-size="14.00">default :boolean</text>
<text text-anchor="start" x="553.182" y="-144.3" font-family="Times,serif" font-size="14.00">assigned_date :date</text>
</g>
<!-- DataModule&#45;&gt;TreatmentState -->
<g id="edge4" class="edge"><title>DataModule&#45;&gt;TreatmentState</title>
<path fill="none" stroke="#81d4c5" d="M675.382,-350.778C663.53,-326.918 650.599,-299.64 639.463,-275.041"/>
<ellipse fill="none" stroke="#81d4c5" cx="677.324" cy="-354.666" rx="4.00002" ry="4.00002"/>
<polygon fill="#81d4c5" stroke="#81d4c5" points="639.39,-274.878 639.394,-263.912 637.34,-270.317 635.289,-265.757 635.289,-265.757 635.289,-265.757 637.34,-270.317 631.185,-267.602 639.39,-274.878 639.39,-274.878"/>
</g>
<!-- Doctor -->
<g id="node4" class="node"><title>Doctor</title>
<path fill="none" stroke="black" d="M237.41,-302.5C237.41,-302.5 417.966,-302.5 417.966,-302.5 423.966,-302.5 429.966,-308.5 429.966,-314.5 429.966,-314.5 429.966,-516.5 429.966,-516.5 429.966,-522.5 423.966,-528.5 417.966,-528.5 417.966,-528.5 237.41,-528.5 237.41,-528.5 231.41,-528.5 225.41,-522.5 225.41,-516.5 225.41,-516.5 225.41,-314.5 225.41,-314.5 225.41,-308.5 231.41,-302.5 237.41,-302.5"/>
<text text-anchor="middle" x="327.688" y="-513.3" font-family="Times,serif" font-size="14.00">Doctor</text>
<polyline fill="none" stroke="black" points="225.41,-506.5 429.966,-506.5 "/>
<text text-anchor="start" x="233.41" y="-491.3" font-family="Times,serif" font-size="14.00">id :integer</text>
<text text-anchor="start" x="233.41" y="-477.3" font-family="Times,serif" font-size="14.00">created_at :datetime</text>
<text text-anchor="start" x="233.41" y="-463.3" font-family="Times,serif" font-size="14.00">updated_at :datetime</text>
<text text-anchor="start" x="233.41" y="-449.3" font-family="Times,serif" font-size="14.00">email :string</text>
<text text-anchor="start" x="233.41" y="-435.3" font-family="Times,serif" font-size="14.00">encrypted_password :string</text>
<text text-anchor="start" x="233.41" y="-421.3" font-family="Times,serif" font-size="14.00">reset_password_token :string</text>
<text text-anchor="start" x="233.41" y="-407.3" font-family="Times,serif" font-size="14.00">reset_password_sent_at :datetime</text>
<text text-anchor="start" x="233.41" y="-393.3" font-family="Times,serif" font-size="14.00">remember_created_at :datetime</text>
<text text-anchor="start" x="233.41" y="-379.3" font-family="Times,serif" font-size="14.00">sign_in_count :integer</text>
<text text-anchor="start" x="233.41" y="-365.3" font-family="Times,serif" font-size="14.00">current_sign_in_at :datetime</text>
<text text-anchor="start" x="233.41" y="-351.3" font-family="Times,serif" font-size="14.00">last_sign_in_at :datetime</text>
<text text-anchor="start" x="233.41" y="-337.3" font-family="Times,serif" font-size="14.00">current_sign_in_ip :string</text>
<text text-anchor="start" x="233.41" y="-323.3" font-family="Times,serif" font-size="14.00">last_sign_in_ip :string</text>
<text text-anchor="start" x="233.41" y="-309.3" font-family="Times,serif" font-size="14.00">name :string</text>
</g>
<!-- Team -->
<g id="node8" class="node"><title>Team</title>
<path fill="none" stroke="black" d="M237.182,-151.5C237.182,-151.5 346.193,-151.5 346.193,-151.5 352.193,-151.5 358.193,-157.5 358.193,-163.5 358.193,-163.5 358.193,-239.5 358.193,-239.5 358.193,-245.5 352.193,-251.5 346.193,-251.5 346.193,-251.5 237.182,-251.5 237.182,-251.5 231.182,-251.5 225.182,-245.5 225.182,-239.5 225.182,-239.5 225.182,-163.5 225.182,-163.5 225.182,-157.5 231.182,-151.5 237.182,-151.5"/>
<text text-anchor="middle" x="291.688" y="-236.3" font-family="Times,serif" font-size="14.00">Team</text>
<polyline fill="none" stroke="black" points="225.182,-229.5 358.193,-229.5 "/>
<text text-anchor="start" x="233.182" y="-214.3" font-family="Times,serif" font-size="14.00">id :integer</text>
<text text-anchor="start" x="233.182" y="-200.3" font-family="Times,serif" font-size="14.00">name :string</text>
<text text-anchor="start" x="233.182" y="-186.3" font-family="Times,serif" font-size="14.00">description :text</text>
<text text-anchor="start" x="233.182" y="-172.3" font-family="Times,serif" font-size="14.00">created_at :datetime</text>
<text text-anchor="start" x="233.182" y="-158.3" font-family="Times,serif" font-size="14.00">updated_at :datetime</text>
</g>
<!-- Doctor&#45;&gt;Team -->
<g id="edge5" class="edge"><title>Doctor&#45;&gt;Team</title>
<path fill="none" stroke="#662de8" d="M306.942,-292.33C305.138,-281.704 303.371,-271.301 301.717,-261.56"/>
<polygon fill="#662de8" stroke="#662de8" points="306.959,-292.433 304.197,-303.046 307.796,-297.363 308.634,-302.292 308.634,-302.292 308.634,-302.292 307.796,-297.363 313.07,-301.539 306.959,-292.433 306.959,-292.433"/>
<polygon fill="#662de8" stroke="#662de8" points="301.711,-261.527 304.473,-250.914 300.874,-256.597 300.037,-251.668 300.037,-251.668 300.037,-251.668 300.874,-256.597 295.601,-252.421 301.711,-261.527 301.711,-261.527"/>
</g>
<!-- Pathway -->
<g id="node5" class="node"><title>Pathway</title>
<path fill="none" stroke="black" d="M460.182,-365.5C460.182,-365.5 569.193,-365.5 569.193,-365.5 575.193,-365.5 581.193,-371.5 581.193,-377.5 581.193,-377.5 581.193,-453.5 581.193,-453.5 581.193,-459.5 575.193,-465.5 569.193,-465.5 569.193,-465.5 460.182,-465.5 460.182,-465.5 454.182,-465.5 448.182,-459.5 448.182,-453.5 448.182,-453.5 448.182,-377.5 448.182,-377.5 448.182,-371.5 454.182,-365.5 460.182,-365.5"/>
<text text-anchor="middle" x="514.688" y="-450.3" font-family="Times,serif" font-size="14.00">Pathway</text>
<polyline fill="none" stroke="black" points="448.182,-443.5 581.193,-443.5 "/>
<text text-anchor="start" x="456.182" y="-428.3" font-family="Times,serif" font-size="14.00">id :integer</text>
<text text-anchor="start" x="456.182" y="-414.3" font-family="Times,serif" font-size="14.00">patient_id :integer</text>
<text text-anchor="start" x="456.182" y="-400.3" font-family="Times,serif" font-size="14.00">disease :string</text>
<text text-anchor="start" x="456.182" y="-386.3" font-family="Times,serif" font-size="14.00">created_at :datetime</text>
<text text-anchor="start" x="456.182" y="-372.3" font-family="Times,serif" font-size="14.00">updated_at :datetime</text>
</g>
<!-- Pathway&#45;&gt;TreatmentState -->
<g id="edge6" class="edge"><title>Pathway&#45;&gt;TreatmentState</title>
<path fill="none" stroke="#cf4a6c" d="M540.592,-357.884C552.194,-332.527 566.018,-302.313 578.378,-275.3"/>
<ellipse fill="none" stroke="#cf4a6c" cx="538.85" cy="-361.693" rx="4.00002" ry="4.00002"/>
<polygon fill="#cf4a6c" stroke="#cf4a6c" points="578.522,-274.985 586.775,-267.764 580.603,-270.438 582.683,-265.892 582.683,-265.892 582.683,-265.892 580.603,-270.438 578.591,-264.019 578.522,-274.985 578.522,-274.985"/>
</g>
<!-- Patient -->
<g id="node6" class="node"><title>Patient</title>
<path fill="none" stroke="black" d="M237.41,-565.5C237.41,-565.5 417.966,-565.5 417.966,-565.5 423.966,-565.5 429.966,-571.5 429.966,-577.5 429.966,-577.5 429.966,-793.5 429.966,-793.5 429.966,-799.5 423.966,-805.5 417.966,-805.5 417.966,-805.5 237.41,-805.5 237.41,-805.5 231.41,-805.5 225.41,-799.5 225.41,-793.5 225.41,-793.5 225.41,-577.5 225.41,-577.5 225.41,-571.5 231.41,-565.5 237.41,-565.5"/>
<text text-anchor="middle" x="327.688" y="-790.3" font-family="Times,serif" font-size="14.00">Patient</text>
<polyline fill="none" stroke="black" points="225.41,-783.5 429.966,-783.5 "/>
<text text-anchor="start" x="233.41" y="-768.3" font-family="Times,serif" font-size="14.00">id :integer</text>
<text text-anchor="start" x="233.41" y="-754.3" font-family="Times,serif" font-size="14.00">created_at :datetime</text>
<text text-anchor="start" x="233.41" y="-740.3" font-family="Times,serif" font-size="14.00">updated_at :datetime</text>
<text text-anchor="start" x="233.41" y="-726.3" font-family="Times,serif" font-size="14.00">name :string</text>
<text text-anchor="start" x="233.41" y="-712.3" font-family="Times,serif" font-size="14.00">nhs_number :integer</text>
<text text-anchor="start" x="233.41" y="-698.3" font-family="Times,serif" font-size="14.00">email :string</text>
<text text-anchor="start" x="233.41" y="-684.3" font-family="Times,serif" font-size="14.00">encrypted_password :string</text>
<text text-anchor="start" x="233.41" y="-670.3" font-family="Times,serif" font-size="14.00">reset_password_token :string</text>
<text text-anchor="start" x="233.41" y="-656.3" font-family="Times,serif" font-size="14.00">reset_password_sent_at :datetime</text>
<text text-anchor="start" x="233.41" y="-642.3" font-family="Times,serif" font-size="14.00">remember_created_at :datetime</text>
<text text-anchor="start" x="233.41" y="-628.3" font-family="Times,serif" font-size="14.00">sign_in_count :integer</text>
<text text-anchor="start" x="233.41" y="-614.3" font-family="Times,serif" font-size="14.00">current_sign_in_at :datetime</text>
<text text-anchor="start" x="233.41" y="-600.3" font-family="Times,serif" font-size="14.00">last_sign_in_at :datetime</text>
<text text-anchor="start" x="233.41" y="-586.3" font-family="Times,serif" font-size="14.00">current_sign_in_ip :string</text>
<text text-anchor="start" x="233.41" y="-572.3" font-family="Times,serif" font-size="14.00">last_sign_in_ip :string</text>
</g>
<!-- Patient&#45;&gt;Doctor -->
<g id="edge9" class="edge"><title>Patient&#45;&gt;Doctor</title>
<path fill="none" stroke="#3da21a" d="M327.688,-555.385C327.688,-549.973 327.688,-544.551 327.688,-539.154"/>
<polygon fill="#3da21a" stroke="#3da21a" points="327.688,-555.391 323.188,-565.391 327.688,-560.391 327.688,-565.391 327.688,-565.391 327.688,-565.391 327.688,-560.391 332.188,-565.391 327.688,-555.391 327.688,-555.391"/>
<polygon fill="#3da21a" stroke="#3da21a" points="327.688,-538.814 332.188,-528.814 327.688,-533.814 327.688,-528.814 327.688,-528.814 327.688,-528.814 327.688,-533.814 323.188,-528.814 327.688,-538.814 327.688,-538.814"/>
</g>
<!-- Patient&#45;&gt;Pathway -->
<g id="edge7" class="edge"><title>Patient&#45;&gt;Pathway</title>
<path fill="none" stroke="#76c44e" d="M417.817,-558.822C424.91,-548.754 431.936,-538.721 438.688,-529 451.329,-510.798 464.936,-490.792 477.094,-472.762"/>
<ellipse fill="none" stroke="#76c44e" cx="415.454" cy="-562.171" rx="4.00002" ry="4.00002"/>
<ellipse fill="#76c44e" stroke="#76c44e" cx="479.619" cy="-469.013" rx="4.00002" ry="4.00002"/>
</g>
<!-- Patient&#45;&gt;Team -->
<g id="edge8" class="edge"><title>Patient&#45;&gt;Team</title>
<path fill="none" stroke="#c0a6cd" d="M227.535,-556.092C223.302,-547.207 219.616,-538.143 216.688,-529 185.913,-432.919 184.669,-397.673 216.688,-302 221.616,-287.276 229.676,-272.986 238.725,-260.045"/>
<polygon fill="#c0a6cd" stroke="#c0a6cd" points="227.66,-556.341 228.113,-567.297 229.898,-560.812 232.137,-565.282 232.137,-565.282 232.137,-565.282 229.898,-560.812 236.161,-563.268 227.66,-556.341 227.66,-556.341"/>
<polygon fill="#c0a6cd" stroke="#c0a6cd" points="238.891,-259.819 248.424,-254.4 241.841,-255.782 244.791,-251.745 244.791,-251.745 244.791,-251.745 241.841,-255.782 241.158,-249.09 238.891,-259.819 238.891,-259.819"/>
</g>
<!-- Patient&#45;&gt;TreatmentModule -->
<g id="edge11" class="edge"><title>Patient&#45;&gt;TreatmentModule</title>
<path fill="none" stroke="#21761b" d="M218.55,-566.873C203.264,-549.207 191.93,-534.905 189.688,-529 127.702,-365.768 96.0552,-264.181 215.688,-137 255.096,-95.1049 408.082,-71.4652 509.493,-60.1049"/>
<polygon fill="#21761b" stroke="#21761b" points="218.751,-567.103 221.939,-577.595 222.04,-570.869 225.328,-574.635 225.328,-574.635 225.328,-574.635 222.04,-570.869 228.718,-571.675 218.751,-567.103 218.751,-567.103"/>
<polygon fill="#21761b" stroke="#21761b" points="509.506,-60.1035 519.938,-63.4837 514.476,-59.5571 519.447,-59.0106 519.447,-59.0106 519.447,-59.0106 514.476,-59.5571 518.955,-54.5376 509.506,-60.1035 509.506,-60.1035"/>
</g>
<!-- Patient&#45;&gt;TreatmentState -->
<g id="edge10" class="edge"><title>Patient&#45;&gt;TreatmentState</title>
<path fill="none" stroke="#8dad6d" d="M439.717,-647.014C494.858,-622.459 556.652,-584.447 590.688,-529 615.79,-488.106 616.905,-358.978 614.762,-275.892"/>
<polygon fill="#8dad6d" stroke="#8dad6d" points="439.392,-647.155 428.427,-647.014 434.807,-649.148 430.221,-651.141 430.221,-651.141 430.221,-651.141 434.807,-649.148 432.015,-655.268 439.392,-647.155 439.392,-647.155"/>
<polygon fill="#8dad6d" stroke="#8dad6d" points="614.758,-275.742 618.976,-265.62 614.618,-270.744 614.478,-265.746 614.478,-265.746 614.478,-265.746 614.618,-270.744 609.98,-265.872 614.758,-275.742 614.758,-275.742"/>
</g>
<!-- Subcategory&#45;&gt;DataModule -->
<g id="edge12" class="edge"><title>Subcategory&#45;&gt;DataModule</title>
<path fill="none" stroke="#6ddd54" d="M760.538,-108.767C750.164,-173.693 733.275,-279.395 722.323,-347.938"/>
<ellipse fill="none" stroke="#6ddd54" cx="761.201" cy="-104.616" rx="4.00001" ry="4.00001"/>
<polygon fill="#6ddd54" stroke="#6ddd54" points="722.264,-348.305 716.243,-357.469 721.476,-353.242 720.687,-358.18 720.687,-358.18 720.687,-358.18 721.476,-353.242 725.13,-358.89 722.264,-348.305 722.264,-348.305"/>
</g>
<!-- TreatmentState&#45;&gt;DataModule -->
<g id="edge14" class="edge"><title>TreatmentState&#45;&gt;DataModule</title>
<path fill="none" stroke="#581adc" d="M652.248,-274.84C664.057,-298.899 676.574,-325.539 687.104,-349.047"/>
<polygon fill="#581adc" stroke="#581adc" points="652.191,-274.723 651.797,-263.764 649.977,-270.24 647.762,-265.757 647.762,-265.757 647.762,-265.757 649.977,-270.24 643.728,-267.75 652.191,-274.723 652.191,-274.723"/>
<polygon fill="#581adc" stroke="#581adc" points="687.131,-349.107 687.081,-360.072 689.162,-353.676 691.193,-358.244 691.193,-358.244 691.193,-358.244 689.162,-353.676 695.305,-356.417 687.131,-349.107 687.131,-349.107"/>
</g>
<!-- TreatmentState&#45;&gt;Subcategory -->
<g id="edge15" class="edge"><title>TreatmentState&#45;&gt;Subcategory</title>
<path fill="none" stroke="#05756c" d="M685.676,-130.726C693.938,-122.935 702.273,-115.075 710.318,-107.488"/>
<polygon fill="#05756c" stroke="#05756c" points="685.511,-130.882 675.149,-134.469 681.874,-134.312 678.236,-137.742 678.236,-137.742 678.236,-137.742 681.874,-134.312 681.323,-141.016 685.511,-130.882 685.511,-130.882"/>
<polygon fill="#05756c" stroke="#05756c" points="710.339,-107.468 720.701,-103.881 713.976,-104.038 717.614,-100.607 717.614,-100.607 717.614,-100.607 713.976,-104.038 714.527,-97.3336 710.339,-107.468 710.339,-107.468"/>
</g>
<!-- TreatmentState&#45;&gt;TreatmentModule -->
<g id="edge13" class="edge"><title>TreatmentState&#45;&gt;TreatmentModule</title>
<path fill="none" stroke="#2d0083" d="M607.384,-129.249C607.011,-123.077 606.637,-116.876 606.27,-110.814"/>
<ellipse fill="none" stroke="#2d0083" cx="607.63" cy="-133.318" rx="4" ry="4"/>
<polygon fill="#2d0083" stroke="#2d0083" points="606.267,-110.757 610.156,-100.504 605.966,-105.766 605.664,-100.775 605.664,-100.775 605.664,-100.775 605.966,-105.766 601.172,-101.047 606.267,-110.757 606.267,-110.757"/>
</g>
</g>
</svg>
