<?xml version="1.0" encoding="UTF-8" standalone="no"?>
<!DOCTYPE svg PUBLIC "-//W3C//DTD SVG 1.1//EN"
 "http://www.w3.org/Graphics/SVG/1.1/DTD/svg11.dtd">
<!-- Generated by graphviz version 2.38.0 (20140413.2041)
 -->
<!-- Title: models_diagram Pages: 1 -->
<svg width="611pt" height="441pt"
 viewBox="0.00 0.00 610.89 441.00" xmlns="http://www.w3.org/2000/svg" xmlns:xlink="http://www.w3.org/1999/xlink">
<g id="graph0" class="graph" transform="scale(1 1) rotate(0) translate(4 437)">
<title>models_diagram</title>
<polygon fill="white" stroke="none" points="-4,4 -4,-437 606.89,-437 606.89,4 -4,4"/>
<!-- _diagram_info -->
<g id="node1" class="node"><title>_diagram_info</title>
<text text-anchor="start" x="8" y="-418.6" font-family="Times,serif" font-size="13.00">Models diagram</text>
<text text-anchor="start" x="8" y="-405.6" font-family="Times,serif" font-size="13.00">Date: Mar 30 2015 &#45; 10:39</text>
<text text-anchor="start" x="8" y="-392.6" font-family="Times,serif" font-size="13.00">Migration version: 20150329122232</text>
<text text-anchor="start" x="8" y="-379.6" font-family="Times,serif" font-size="13.00">Generated by RailRoady 1.3.0</text>
<text text-anchor="start" x="8" y="-366.6" font-family="Times,serif" font-size="13.00">http://railroady.prestonlee.com</text>
</g>
<!-- Category -->
<g id="node2" class="node"><title>Category</title>
<ellipse fill="none" stroke="black" cx="109.688" cy="-234" rx="42.5456" ry="18"/>
<text text-anchor="middle" x="109.688" y="-229.8" font-family="Times,serif" font-size="14.00">Category</text>
</g>
<!-- DataModule -->
<g id="node3" class="node"><title>DataModule</title>
<ellipse fill="none" stroke="black" cx="136.688" cy="-162" rx="54.123" ry="18"/>
<text text-anchor="middle" x="136.688" y="-157.8" font-family="Times,serif" font-size="14.00">DataModule</text>
</g>
<!-- Category&#45;&gt;DataModule -->
<g id="edge2" class="edge"><title>Category&#45;&gt;DataModule</title>
<path fill="none" stroke="#4a10ef" d="M119.881,-206.574C122.002,-201.073 124.24,-195.271 126.367,-189.758"/>
<polygon fill="#4a10ef" stroke="#4a10ef" points="119.822,-206.725 112.025,-214.435 118.023,-211.39 116.224,-216.055 116.224,-216.055 116.224,-216.055 118.023,-211.39 120.422,-217.674 119.822,-206.725 119.822,-206.725"/>
<polygon fill="#4a10ef" stroke="#4a10ef" points="126.426,-189.605 134.223,-181.895 128.225,-184.94 130.024,-180.275 130.024,-180.275 130.024,-180.275 128.225,-184.94 125.826,-178.656 126.426,-189.605 126.426,-189.605"/>
</g>
<!-- Subcategory -->
<g id="node8" class="node"><title>Subcategory</title>
<ellipse fill="none" stroke="black" cx="74.6877" cy="-18" rx="54.123" ry="18"/>
<text text-anchor="middle" x="74.6877" y="-13.8" font-family="Times,serif" font-size="14.00">Subcategory</text>
</g>
<!-- Category&#45;&gt;Subcategory -->
<g id="edge1" class="edge"><title>Category&#45;&gt;Subcategory</title>
<path fill="none" stroke="#892d4f" d="M89.8992,-210.31C83.415,-201.461 77.0225,-190.845 73.6877,-180 59.8108,-134.873 64.6809,-79.2076 69.6008,-46.555"/>
<ellipse fill="none" stroke="#892d4f" cx="92.3854" cy="-213.538" rx="4.00002" ry="4.00002"/>
<polygon fill="#892d4f" stroke="#892d4f" points="69.6447,-46.2835 75.6863,-37.132 70.4445,-41.3478 71.2442,-36.4122 71.2442,-36.4122 71.2442,-36.4122 70.4445,-41.3478 66.8021,-35.6925 69.6447,-46.2835 69.6447,-46.2835"/>
</g>
<!-- TreatmentModule -->
<g id="node10" class="node"><title>TreatmentModule</title>
<ellipse fill="none" stroke="black" cx="311.688" cy="-18" rx="73.7956" ry="18"/>
<text text-anchor="middle" x="311.688" y="-13.8" font-family="Times,serif" font-size="14.00">TreatmentModule</text>
</g>
<!-- DataModule&#45;&gt;TreatmentModule -->
<g id="edge4" class="edge"><title>DataModule&#45;&gt;TreatmentModule</title>
<path fill="none" stroke="#a350d2" d="M135.703,-135.511C136.317,-115.887 140.324,-89.2788 155.688,-72 176.09,-49.0547 206.811,-36.0333 235.61,-28.6476"/>
<ellipse fill="none" stroke="#a350d2" cx="135.664" cy="-139.712" rx="4" ry="4"/>
<polygon fill="#a350d2" stroke="#a350d2" points="235.964,-28.5639 246.731,-30.6425 240.83,-27.4136 245.696,-26.2632 245.696,-26.2632 245.696,-26.2632 240.83,-27.4136 244.661,-21.8839 235.964,-28.5639 235.964,-28.5639"/>
</g>
<!-- TreatmentState -->
<g id="node11" class="node"><title>TreatmentState</title>
<ellipse fill="none" stroke="black" cx="228.688" cy="-90" rx="63.6398" ry="18"/>
<text text-anchor="middle" x="228.688" y="-85.8" font-family="Times,serif" font-size="14.00">TreatmentState</text>
</g>
<!-- DataModule&#45;&gt;TreatmentState -->
<g id="edge5" class="edge"><title>DataModule&#45;&gt;TreatmentState</title>
<path fill="none" stroke="#7e8325" d="M159.186,-139.079C169.768,-130.574 182.539,-120.866 194.272,-112.411"/>
<ellipse fill="none" stroke="#7e8325" cx="155.75" cy="-141.882" rx="4.00002" ry="4.00002"/>
<polygon fill="#7e8325" stroke="#7e8325" points="194.43,-112.299 205.189,-110.181 198.508,-109.405 202.585,-106.511 202.585,-106.511 202.585,-106.511 198.508,-109.405 199.98,-102.841 194.43,-112.299 194.43,-112.299"/>
</g>
<!-- Doctor -->
<g id="node4" class="node"><title>Doctor</title>
<ellipse fill="none" stroke="black" cx="388.688" cy="-306" rx="34.8285" ry="18"/>
<text text-anchor="middle" x="388.688" y="-301.8" font-family="Times,serif" font-size="14.00">Doctor</text>
</g>
<!-- Patient -->
<g id="node7" class="node"><title>Patient</title>
<ellipse fill="none" stroke="black" cx="354.688" cy="-234" rx="34.8371" ry="18"/>
<text text-anchor="middle" x="354.688" y="-229.8" font-family="Times,serif" font-size="14.00">Patient</text>
</g>
<!-- Doctor&#45;&gt;Patient -->
<g id="edge8" class="edge"><title>Doctor&#45;&gt;Patient</title>
<path fill="none" stroke="#d8acbb" d="M376.227,-279.345C373.317,-273.354 370.216,-266.97 367.3,-260.966"/>
<polygon fill="#d8acbb" stroke="#d8acbb" points="376.261,-279.416 376.582,-290.377 378.446,-283.913 380.63,-288.411 380.63,-288.411 380.63,-288.411 378.446,-283.913 384.678,-286.445 376.261,-279.416 376.261,-279.416"/>
<polygon fill="#d8acbb" stroke="#d8acbb" points="367.293,-260.951 366.971,-249.99 365.108,-256.454 362.924,-251.956 362.924,-251.956 362.924,-251.956 365.108,-256.454 358.876,-253.922 367.293,-260.951 367.293,-260.951"/>
</g>
<!-- Team -->
<g id="node9" class="node"><title>Team</title>
<ellipse fill="none" stroke="black" cx="452.688" cy="-162" rx="29.7411" ry="18"/>
<text text-anchor="middle" x="452.688" y="-157.8" font-family="Times,serif" font-size="14.00">Team</text>
</g>
<!-- Doctor&#45;&gt;Team -->
<g id="edge7" class="edge"><title>Doctor&#45;&gt;Team</title>
<path fill="none" stroke="#6e9e33" d="M400.547,-278.688C412.043,-253.179 429.385,-214.703 440.869,-189.224"/>
<polygon fill="#6e9e33" stroke="#6e9e33" points="400.39,-279.036 392.178,-286.304 398.335,-283.595 396.281,-288.153 396.281,-288.153 396.281,-288.153 398.335,-283.595 400.383,-290.002 400.39,-279.036 400.39,-279.036"/>
<polygon fill="#6e9e33" stroke="#6e9e33" points="440.996,-188.942 449.207,-181.674 443.05,-184.383 445.105,-179.825 445.105,-179.825 445.105,-179.825 443.05,-184.383 441.002,-177.976 440.996,-188.942 440.996,-188.942"/>
</g>
<!-- Image -->
<g id="node5" class="node"><title>Image</title>
<ellipse fill="none" stroke="black" cx="570.688" cy="-306" rx="32.4063" ry="18"/>
<text text-anchor="middle" x="570.688" y="-301.8" font-family="Times,serif" font-size="14.00">Image</text>
</g>
<!-- Pathway -->
<g id="node6" class="node"><title>Pathway</title>
<ellipse fill="none" stroke="black" cx="287.688" cy="-162" rx="40.6248" ry="18"/>
<text text-anchor="middle" x="287.688" y="-157.8" font-family="Times,serif" font-size="14.00">Pathway</text>
</g>
<!-- Pathway&#45;&gt;TreatmentState -->
<g id="edge11" class="edge"><title>Pathway&#45;&gt;TreatmentState</title>
<path fill="none" stroke="#1456bd" d="M268.679,-138.448C262.478,-131.091 255.566,-122.89 249.256,-115.403"/>
<ellipse fill="none" stroke="#1456bd" cx="271.426" cy="-141.706" rx="4.00002" ry="4.00002"/>
<polygon fill="#1456bd" stroke="#1456bd" points="249.152,-115.28 246.148,-104.733 245.93,-111.457 242.707,-107.633 242.707,-107.633 242.707,-107.633 245.93,-111.457 239.266,-110.534 249.152,-115.28 249.152,-115.28"/>
</g>
<!-- Patient&#45;&gt;Pathway -->
<g id="edge13" class="edge"><title>Patient&#45;&gt;Pathway</title>
<path fill="none" stroke="#2b6bd9" d="M334.149,-211.542C326.142,-203.177 316.968,-193.591 308.898,-185.16"/>
<ellipse fill="none" stroke="#2b6bd9" cx="337.052" cy="-214.575" rx="4.00002" ry="4.00002"/>
<ellipse fill="#2b6bd9" stroke="#2b6bd9" cx="305.746" cy="-181.867" rx="4.00002" ry="4.00002"/>
</g>
<!-- Patient&#45;&gt;Team -->
<g id="edge14" class="edge"><title>Patient&#45;&gt;Team</title>
<path fill="none" stroke="#f872de" d="M382.751,-212.955C396.305,-203.274 412.49,-191.713 425.876,-182.152"/>
<polygon fill="#f872de" stroke="#f872de" points="382.657,-213.022 371.904,-215.173 378.588,-215.928 374.52,-218.834 374.52,-218.834 374.52,-218.834 378.588,-215.928 377.135,-222.496 382.657,-213.022 382.657,-213.022"/>
<polygon fill="#f872de" stroke="#f872de" points="426.074,-182.01 436.827,-179.859 430.143,-179.104 434.212,-176.197 434.212,-176.197 434.212,-176.197 430.143,-179.104 431.596,-172.535 426.074,-182.01 426.074,-182.01"/>
</g>
<!-- Patient&#45;&gt;TreatmentModule -->
<g id="edge16" class="edge"><title>Patient&#45;&gt;TreatmentModule</title>
<path fill="none" stroke="#ca939c" d="M357.15,-205.621C357.783,-197.392 358.374,-188.335 358.688,-180 359.29,-164.011 361.549,-159.742 358.688,-144 352.245,-108.558 336.309,-70.0915 324.778,-45.328"/>
<polygon fill="#ca939c" stroke="#ca939c" points="357.13,-205.866 351.828,-215.465 356.721,-210.849 356.313,-215.833 356.313,-215.833 356.313,-215.833 356.721,-210.849 360.798,-216.2 357.13,-205.866 357.13,-205.866"/>
<polygon fill="#ca939c" stroke="#ca939c" points="324.746,-45.2605 324.514,-34.2971 322.598,-40.7452 320.45,-36.2298 320.45,-36.2298 320.45,-36.2298 322.598,-40.7452 316.387,-38.1626 324.746,-45.2605 324.746,-45.2605"/>
</g>
<!-- Patient&#45;&gt;TreatmentState -->
<g id="edge15" class="edge"><title>Patient&#45;&gt;TreatmentState</title>
<path fill="none" stroke="#22bd5b" d="M355.631,-205.614C354.92,-186.554 351.101,-161.517 337.688,-144 324.331,-126.556 303.736,-114.524 284.031,-106.393"/>
<polygon fill="#22bd5b" stroke="#22bd5b" points="355.632,-205.772 351.244,-215.822 355.688,-210.772 355.743,-215.772 355.743,-215.772 355.743,-215.772 355.688,-210.772 360.243,-215.722 355.632,-205.772 355.632,-205.772"/>
<polygon fill="#22bd5b" stroke="#22bd5b" points="283.796,-106.302 276.082,-98.508 279.13,-104.505 274.464,-102.707 274.464,-102.707 274.464,-102.707 279.13,-104.505 272.847,-106.906 283.796,-106.302 283.796,-106.302"/>
</g>
<!-- Subcategory&#45;&gt;DataModule -->
<g id="edge18" class="edge"><title>Subcategory&#45;&gt;DataModule</title>
<path fill="none" stroke="#9e775c" d="M85.4668,-43.6874C96.5852,-69.1522 113.86,-108.717 125.224,-134.743"/>
<ellipse fill="none" stroke="#9e775c" cx="83.8278" cy="-39.9336" rx="4.00002" ry="4.00002"/>
<polygon fill="#9e775c" stroke="#9e775c" points="125.331,-134.989 125.208,-145.954 127.331,-139.571 129.332,-144.153 129.332,-144.153 129.332,-144.153 127.331,-139.571 133.456,-142.352 125.331,-134.989 125.331,-134.989"/>
</g>
<!-- TreatmentState&#45;&gt;DataModule -->
<g id="edge23" class="edge"><title>TreatmentState&#45;&gt;DataModule</title>
<path fill="none" stroke="#b39ebb" d="M204.763,-114.064C194.308,-122.419 181.925,-131.805 170.568,-139.975"/>
<polygon fill="#b39ebb" stroke="#b39ebb" points="204.92,-113.937 215.517,-111.119 208.799,-110.782 212.678,-107.628 212.678,-107.628 212.678,-107.628 208.799,-110.782 209.839,-104.136 204.92,-113.937 204.92,-113.937"/>
<polygon fill="#b39ebb" stroke="#b39ebb" points="170.489,-140.031 159.728,-142.139 166.409,-142.921 162.329,-145.811 162.329,-145.811 162.329,-145.811 166.409,-142.921 164.93,-149.483 170.489,-140.031 170.489,-140.031"/>
</g>
<!-- TreatmentState&#45;&gt;Subcategory -->
<g id="edge24" class="edge"><title>TreatmentState&#45;&gt;Subcategory</title>
<path fill="none" stroke="#4fe425" d="M187.239,-70.1595C164.667,-59.8999 136.874,-47.2666 114.554,-37.1212"/>
<polygon fill="#4fe425" stroke="#4fe425" points="187.301,-70.1876 194.542,-78.4224 191.852,-72.2567 196.404,-74.3257 196.404,-74.3257 196.404,-74.3257 191.852,-72.2567 198.266,-70.2291 187.301,-70.1876 187.301,-70.1876"/>
<polygon fill="#4fe425" stroke="#4fe425" points="114.459,-37.0777 107.217,-28.843 109.907,-35.0087 105.355,-32.9396 105.355,-32.9396 105.355,-32.9396 109.907,-35.0087 103.493,-37.0363 114.459,-37.0777 114.459,-37.0777"/>
</g>
<!-- TreatmentState&#45;&gt;TreatmentModule -->
<g id="edge22" class="edge"><title>TreatmentState&#45;&gt;TreatmentModule</title>
<path fill="none" stroke="#aa0d9e" d="M254.125,-67.5468C263.712,-59.4613 274.652,-50.2354 284.401,-42.0132"/>
<ellipse fill="none" stroke="#aa0d9e" cx="250.996" cy="-70.1858" rx="4.00002" ry="4.00002"/>
<polygon fill="#aa0d9e" stroke="#aa0d9e" points="284.61,-41.8369 295.155,-38.8298 288.432,-38.6133 292.254,-35.3898 292.254,-35.3898 292.254,-35.3898 288.432,-38.6133 289.353,-31.9498 284.61,-41.8369 284.61,-41.8369"/>
</g>
<!-- ActiveRecord::Base -->
<g id="node12" class="node"><title>ActiveRecord::Base</title>
<ellipse fill="none" stroke="black" cx="306.688" cy="-396.5" rx="81.1422" ry="18"/>
<text text-anchor="middle" x="306.688" y="-392.3" font-family="Times,serif" font-size="14.00">ActiveRecord::Base</text>
</g>
<!-- ActiveRecord::Base&#45;&gt;Category -->
<g id="edge3" class="edge"><title>ActiveRecord::Base&#45;&gt;Category</title>
<path fill="none" stroke="black" d="M264.888,-380.955C235.048,-369.053 195.292,-349.945 166.688,-324 143.855,-303.29 126.442,-271.433 117.169,-251.978"/>
</g>
<!-- ActiveRecord::Base&#45;&gt;DataModule -->
<g id="edge6" class="edge"><title>ActiveRecord::Base&#45;&gt;DataModule</title>
<path fill="none" stroke="black" d="M274.882,-379.656C252.625,-367.178 223.603,-347.916 204.688,-324 172.639,-283.477 182.274,-263.386 161.688,-216 156.418,-203.869 150.053,-190.392 145.065,-180.063"/>
</g>
<!-- ActiveRecord::Base&#45;&gt;Doctor -->
<g id="edge9" class="edge"><title>ActiveRecord::Base&#45;&gt;Doctor</title>
<path fill="none" stroke="black" d="M322.498,-378.436C337.484,-362.263 359.8,-338.178 374.299,-322.529"/>
</g>
<!-- ActiveRecord::Base&#45;&gt;Image -->
<g id="edge10" class="edge"><title>ActiveRecord::Base&#45;&gt;Image</title>
<path fill="none" stroke="black" d="M351.525,-381.33C395.712,-367.24 465.075,-344.783 524.688,-324 531.119,-321.758 538.023,-319.257 544.476,-316.878"/>
</g>
<!-- ActiveRecord::Base&#45;&gt;Pathway -->
<g id="edge12" class="edge"><title>ActiveRecord::Base&#45;&gt;Pathway</title>
<path fill="none" stroke="black" d="M305.291,-378.404C301.777,-335.407 292.603,-223.145 289.087,-180.121"/>
</g>
<!-- ActiveRecord::Base&#45;&gt;Patient -->
<g id="edge17" class="edge"><title>ActiveRecord::Base&#45;&gt;Patient</title>
<path fill="none" stroke="black" d="M311.825,-378.324C321.063,-347.432 340.376,-282.855 349.588,-252.053"/>
</g>
<!-- ActiveRecord::Base&#45;&gt;Subcategory -->
<g id="edge19" class="edge"><title>ActiveRecord::Base&#45;&gt;Subcategory</title>
<path fill="none" stroke="black" d="M268.989,-380.52C221.898,-361.715 145.984,-331.058 133.688,-324 77.025,-291.474 16.6877,-300.335 16.6877,-235 16.6877,-235 16.6877,-235 16.6877,-161 16.6877,-112.534 46.0028,-61.209 62.9506,-35.5867"/>
</g>
<!-- ActiveRecord::Base&#45;&gt;Team -->
<g id="edge20" class="edge"><title>ActiveRecord::Base&#45;&gt;Team</title>
<path fill="none" stroke="black" d="M352.191,-381.478C380.065,-370.435 413.891,-352.126 432.688,-324 462.579,-279.271 459,-211.665 455.256,-180.217"/>
</g>
<!-- ActiveRecord::Base&#45;&gt;TreatmentModule -->
<g id="edge21" class="edge"><title>ActiveRecord::Base&#45;&gt;TreatmentModule</title>
<path fill="none" stroke="black" d="M353.489,-381.69C413.717,-360.694 510.688,-314.538 510.688,-235 510.688,-235 510.688,-235 510.688,-161 510.688,-87.9989 420.856,-48.992 361.904,-31.2534"/>
</g>
<!-- ActiveRecord::Base&#45;&gt;TreatmentState -->
<g id="edge25" class="edge"><title>ActiveRecord::Base&#45;&gt;TreatmentState</title>
<path fill="none" stroke="black" d="M299.896,-378.51C285.821,-342.537 253.466,-255.764 237.688,-180 232.558,-155.37 230.317,-126.272 229.362,-108.224"/>
</g>
</g>
</svg>
